<svg width="48" height="48" viewBox="0 0 48 48" fill="none" xmlns="http://www.w3.org/2000/svg">
<path fill-rule="evenodd" clip-rule="evenodd" d="M17.805 32.556L16.9203 33.6758L18.9181 36.7967L18.7103 38.2414H27.1849L27.7705 36.7967L24.3646 32.556H17.805Z" fill="#499DC8"/>
<path fill-rule="evenodd" clip-rule="evenodd" d="M22.4391 13.5635L19.3748 18.9281L34.3261 36.6198L33.8992 38.2414H40.7568L42.0001 32.4867L25.9996 13.5581L22.4391 13.5635Z" fill="#53B39B"/>
<path fill-rule="evenodd" clip-rule="evenodd" d="M28.7912 6L24.4731 9.52889L23.0178 12.2145H26.6322L32.8402 19.599L36.5317 16.5693V14.6443L35.248 12.8443L36.1957 11.8594L28.7912 6Z" fill="#5BBF6D"/>
<path fill-rule="evenodd" clip-rule="evenodd" d="M13.3442 24.4793H11.3241L6 31.2406V38.2414H11.712L12.7189 36.929L17.1273 31.2232H23.4995L25.4618 28.2183L18.5509 20.016L13.3442 24.4793Z" fill="#57BACA"/>
</svg>
