<?xml version="1.0" standalone="no"?>
<!DOCTYPE svg PUBLIC "-//W3C//DTD SVG 20010904//EN"
 "http://www.w3.org/TR/2001/REC-SVG-20010904/DTD/svg10.dtd">
<svg version="1.0" xmlns="http://www.w3.org/2000/svg"
 width="512.000000pt" height="512.000000pt" viewBox="0 0 512.000000 512.000000"
 preserveAspectRatio="xMidYMid meet">
<metadata>
Created by potrace 1.11, written by Peter Selinger 2001-2013
</metadata>
<g transform="translate(0.000000,512.000000) scale(0.100000,-0.100000)"
fill="#000000" stroke="none">
<path d="M2425 4479 c-132 -6 -255 -23 -255 -36 0 -3 24 -45 54 -92 93 -148
139 -255 169 -396 60 -273 4 -563 -155 -805 -99 -151 -280 -306 -443 -380
-229 -103 -541 -119 -777 -39 -70 24 -204 89 -258 125 -32 22 -35 23 -41 6
-27 -75 -15 -408 22 -598 73 -382 292 -760 589 -1022 494 -435 1166 -578 1788
-380 486 153 878 489 1107 948 148 298 209 611 185 962 -44 653 -444 1241
-1044 1532 -212 103 -431 162 -631 172 -66 3 -131 6 -145 7 -14 2 -88 0 -165
-4z"/>
</g>
</svg>
