<svg width="12px" height="12px" viewBox="0 0 12 12" version="1.1" xmlns="http://www.w3.org/2000/svg">
    <path class="fill-notice" d="M0.0964168861,10.5456976 C-0.116224648,11.027611 0.0346078718,11.6266353 0.433310748,11.8836558 C0.551806547,11.9600431 0.684037065,12 0.818332304,12 L11.1818292,12 C11.6336925,12 12,11.5572429 12,11.0110744 C12,10.8487513 11.9669424,10.6889239 11.9037446,10.5456976 L7.26977361,0.916890992 C6.82873384,0.000466030324 5.90271122,-0.275213859 5.20144421,0.301142724 C5.01103712,0.457634304 4.84999947,0.66808302 4.73025128,0.916911448 L0.0964168861,10.5456976 Z"
          fill="#F2B230" opacity="0.9"/>
    <path class="fill-notice-fg" d="M6.5,8 C6.77614237,8 7,8.22385763 7,8.5 L7,9.5 C7,9.77614237 6.77614237,10 6.5,10 L5.5,10 C5.22385763,10 5,9.77614237 5,9.5 L5,8.5 C5,8.22385763 5.22385763,8 5.5,8 L6.5,8 Z M6.5,3 C6.77614237,3 7,3.22385763 7,3.5 L7,6.5 C7,6.77614237 6.77614237,7 6.5,7 L5.5,7 C5.22385763,7 5,6.77614237 5,6.5 L5,3.5 C5,3.22385763 5.22385763,3 5.5,3 L6.5,3 Z"
          fill="#FFFFFF"/>
</svg>