<svg width="14" height="14" viewBox="0 0 14 14" fill="none" xmlns="http://www.w3.org/2000/svg">
<rect width="14" height="14" fill="white" fill-opacity="0"/>
<path d="M14.0001 5L13.0001 0L11.5262 1.65994C10.3058 0.62454 8.72588 0 7.00008 0C3.30199 0 0.273692 2.86768 0.0176168 6.50061L1.52246 6.50039C1.77489 3.69696 4.13092 1.5 7.00008 1.5C8.34287 1.5 9.57327 1.9812 10.5282 2.78057L9.00008 4.5L14.0001 5Z" fill="black"/>
<path d="M0.0175781 9L1.01758 14L2.49146 12.3401C3.71184 13.3755 5.29177 14 7.01758 14C10.7157 14 13.744 11.1323 14 7.49939L12.4952 7.49961C12.2428 10.303 9.88673 12.5 7.01758 12.5C5.67479 12.5 4.44439 12.0188 3.48942 11.2194L5.01758 9.5L0.0175781 9Z" fill="black"/>
</svg>
