<svg width="14" height="14" viewBox="0 0 14 14" fill="none" xmlns="http://www.w3.org/2000/svg">
<rect width="14" height="14" fill="white" fill-opacity="0"/>
<path fill-rule="evenodd" clip-rule="evenodd" d="M10 1C10 0.447715 9.55229 0 9 0H5C4.44772 0 4 0.447715 4 1V2.5H1.5C1.22386 2.5 1 2.72386 1 3V4H13V3C13 2.72386 12.7761 2.5 12.5 2.5H10V1ZM5.5 1.5H8.5V2.5H5.5V1.5ZM10.5 12.5H3.5V5H2V12.5C2 13.3284 2.67157 14 3.5 14H10.5C11.3284 14 12 13.3284 12 12.5V5H10.5V12.5ZM6 11V6H5V11H6ZM8 11V6H9V11H8Z" fill="black"/>
</svg>
