<?xml version="1.0" encoding="UTF-8"?>
<svg width="15px" height="20px" viewBox="0 0 15 20" version="1.1" xmlns="http://www.w3.org/2000/svg" xmlns:xlink="http://www.w3.org/1999/xlink">
<path fill="#000000" d="M11.4285714,2.85714286 C9.85212054,2.85714286 8.57142857,4.13714286 8.57142857,5.71428571 C8.57142857,6.76828125 9.14899554,7.67995536 10,8.17591518 L10,8.57142857 C10,8.57142857 10,11.4285714 7.14285714,11.4285714 C5.9584375,11.4285714 5.03,11.6824777 4.28571429,12.0716964 L4.28571429,5.31877232 C5.13741071,4.8228125 5.71428571,3.91113839 5.71428571,2.85714286 C5.71428571,1.28 4.43428571,-5.68434189e-14 2.85714286,-5.68434189e-14 C1.28,-5.68434189e-14 0,1.28 0,2.85714286 C0,3.91113839 0.576875,4.8228125 1.42857143,5.31877232 L1.42857143,14.6819196 C0.576875,15.1771875 0,16.0881696 0,17.1428571 C0,18.719308 1.28,20 2.85714286,20 C4.43428571,20 5.71428571,18.719308 5.71428571,17.1428571 C5.71428571,16.3950893 5.41991071,15.7198661 4.94977679,15.2092634 C5.36551339,14.6986607 6.04142857,14.2857143 7.14285714,14.2857143 C12.8125,14.2857143 12.8571429,8.57142857 12.8571429,8.57142857 L12.8571429,8.17591518 C13.7081473,7.67995536 14.2857143,6.76828125 14.2857143,5.71428571 C14.2857143,4.13714286 13.0050223,2.85714286 11.4285714,2.85714286 Z M2.85714286,1.42857143 C3.64745536,1.42857143 4.28571429,2.06683036 4.28571429,2.85714286 C4.28571429,3.64745536 3.64745536,4.28571429 2.85714286,4.28571429 C2.06683036,4.28571429 1.42857143,3.64745536 1.42857143,2.85714286 C1.42857143,2.06683036 2.06683036,1.42857143 2.85714286,1.42857143 Z M2.85714286,18.5714286 C2.06683036,18.5714286 1.42857143,17.9324777 1.42857143,17.1428571 C1.42857143,16.3546429 2.06683036,15.7142857 2.85714286,15.7142857 C3.64745536,15.7142857 4.28571429,16.3546429 4.28571429,17.1428571 C4.28571429,17.9324777 3.64745536,18.5714286 2.85714286,18.5714286 Z M11.4285714,7.14285714 C10.6389509,7.14285714 10,6.50459821 10,5.71428571 C10,4.92397321 10.6389509,4.28571429 11.4285714,4.28571429 C12.218192,4.28571429 12.8571429,4.92397321 12.8571429,5.71428571 C12.8571429,6.50459821 12.218192,7.14285714 11.4285714,7.14285714 Z" id="Shape"></path>
</svg>
