<svg width="14" height="14" viewBox="0 0 14 14" fill="none" xmlns="http://www.w3.org/2000/svg">
<rect width="14" height="14" fill="white" fill-opacity="0"/>
<path fill-rule="evenodd" clip-rule="evenodd" d="M11.5 10C11.7761 10 12 10.2239 12 10.5V11.5C12 11.7761 11.7761 12 11.5 12H2.5C2.22386 12 2 11.7761 2 11.5V10.5C2 10.2239 2.22386 10 2.5 10H11.5ZM11.5 6C11.7761 6 12 6.22386 12 6.5V7.5C12 7.77614 11.7761 8 11.5 8H2.5C2.22386 8 2 7.77614 2 7.5V6.5C2 6.22386 2.22386 6 2.5 6H11.5ZM11.5 2C11.7761 2 12 2.22386 12 2.5V3.5C12 3.77614 11.7761 4 11.5 4H2.5C2.22386 4 2 3.77614 2 3.5V2.5C2 2.22386 2.22386 2 2.5 2H11.5Z" fill="black"/>
</svg>
