<svg width="14" height="14" viewBox="0 0 14 14" fill="none" xmlns="http://www.w3.org/2000/svg">
    <rect width="14" height="14" fill="white" fill-opacity="0"/>
    <path fill-rule="evenodd" clip-rule="evenodd" d="M11 6C11 3.23858 8.76142 1 6 1C3.23858 1 1 3.23858 1 6C1 8.76142 3.23858 11 6 11C7.1099 11 8.13533 10.6384 8.96489 10.0265L12.1161 13.1768C12.3114 13.372 12.628 13.372 12.8232 13.1768L13.1768 12.8232C13.372 12.628 13.372 12.3114 13.1768 12.1161L10.025 8.965L10.1742 8.75348C10.6961 7.96383 11 7.0174 11 6ZM2.5 6C2.5 4.067 4.067 2.5 6 2.5C7.933 2.5 9.5 4.067 9.5 6C9.5 6.94102 9.12863 7.79531 8.52445 8.42429L8.46967 8.46967C8.45192 8.48742 8.43524 8.50584 8.42229 8.52637C7.7935 9.12942 6.94003 9.5 6 9.5C4.067 9.5 2.5 7.933 2.5 6Z" fill="black"/>
</svg>
