<svg width="14" height="14" viewBox="0 0 14 14" fill="none" xmlns="http://www.w3.org/2000/svg">
<rect width="14" height="14" fill="white" fill-opacity="0"/>
<path fill-rule="evenodd" clip-rule="evenodd" d="M6.30769 11.5638C5.55002 11.4498 4.85267 11.1517 4.26267 10.7164L3.24689 11.7322L2.26782 10.7531L3.2836 9.73733C2.84832 9.14733 2.55016 8.44998 2.43619 7.69231H1V6.30769H2.43619C2.55016 5.55002 2.84832 4.85267 3.2836 4.26267L2.26782 3.24689L3.24689 2.26782L4.26267 3.2836C4.85267 2.84832 5.55002 2.55016 6.30769 2.43619V1H7.69231V2.43619C8.44998 2.55016 9.14733 2.84832 9.73733 3.2836L10.7531 2.26782L11.7322 3.24689L10.7164 4.26267C11.1517 4.85267 11.4498 5.55002 11.5638 6.30769H13V7.69231H11.5638C11.4498 8.44998 11.1517 9.14733 10.7164 9.73733L11.7322 10.7531L10.7531 11.7322L9.73733 10.7164C9.14733 11.1517 8.44998 11.4498 7.69231 11.5638V13H6.30769V11.5638ZM7 3.76923C5.2157 3.76923 3.76923 5.2157 3.76923 7C3.76923 8.7843 5.2157 10.2308 7 10.2308C8.7843 10.2308 10.2308 8.7843 10.2308 7C10.2308 5.2157 8.7843 3.76923 7 3.76923Z" fill="black"/>
</svg>
