<svg width="14" height="14" viewBox="0 0 14 14" fill="none" xmlns="http://www.w3.org/2000/svg">
<rect width="14" height="14" fill="white" fill-opacity="0"/>
<path fill-rule="evenodd" clip-rule="evenodd" d="M10.75 5.75C10.75 2.63056 9.33364 1 7 1C4.66636 1 3.25 2.63056 3.25 5.75C3.25 6.78254 3.40518 7.65195 3.69674 8.35205C2.46174 9.28112 1.6307 10.7183 1.51443 12.3528C1.50497 12.4004 1.5 12.4496 1.5 12.5L1.504 12.568L1.5 12.75L1.54281 12.7504C1.64587 13.0415 1.92358 13.25 2.25 13.25C2.57642 13.25 2.85413 13.0415 2.95719 12.7504L3 12.75L3.0049 12.5504C3.06374 11.3532 3.64892 10.2944 4.53411 9.603C5.15912 10.1972 5.99439 10.5 7 10.5C8.00614 10.5 8.84176 10.1969 9.4671 9.60122C10.4004 10.3335 11 12.5 11 12.75C11 13 11.4236 13.25 11.75 13.25C12.0764 13.25 12.3541 13.0415 12.4572 12.7504L12.5 12.75L12.4975 12.5619L12.5 12.5C12.5 12.45 12.4951 12.4011 12.486 12.3544C12.3697 10.7185 11.538 9.2804 10.3026 8.3531C10.5948 7.65195 10.75 6.78254 10.75 5.75ZM4.75 5.75C4.75 3.41572 5.54542 2.5 7 2.5C8.45458 2.5 9.25 3.41572 9.25 5.75C9.25 8.08428 8.45458 9 7 9C5.54542 9 4.75 8.08428 4.75 5.75Z" fill="black"/>
</svg>
