<svg width="14" height="14" viewBox="0 0 14 14" fill="none" xmlns="http://www.w3.org/2000/svg">
<rect width="14" height="14" fill="white" fill-opacity="0"/>
<path fill-rule="evenodd" clip-rule="evenodd" d="M9.5 3C10.3284 3 11 2.32843 11 1.5C11 0.671573 10.3284 0 9.5 0C8.67157 0 8 0.671573 8 1.5C8 2.32843 8.67157 3 9.5 3ZM11 7C11 7.82843 10.3284 8.5 9.5 8.5C8.67157 8.5 8 7.82843 8 7C8 6.17157 8.67157 5.5 9.5 5.5C10.3284 5.5 11 6.17157 11 7ZM11 12.5C11 13.3284 10.3284 14 9.5 14C8.67157 14 8 13.3284 8 12.5C8 11.6716 8.67157 11 9.5 11C10.3284 11 11 11.6716 11 12.5ZM6 7C6 7.82843 5.32843 8.5 4.5 8.5C3.67157 8.5 3 7.82843 3 7C3 6.17157 3.67157 5.5 4.5 5.5C5.32843 5.5 6 6.17157 6 7ZM4.5 14C5.32843 14 6 13.3284 6 12.5C6 11.6716 5.32843 11 4.5 11C3.67157 11 3 11.6716 3 12.5C3 13.3284 3.67157 14 4.5 14ZM6 1.5C6 2.32843 5.32843 3 4.5 3C3.67157 3 3 2.32843 3 1.5C3 0.671573 3.67157 0 4.5 0C5.32843 0 6 0.671573 6 1.5Z" fill="black"/>
</svg>
