<?xml version="1.0" encoding="UTF-8"?>
<svg width="16px" height="16px" viewBox="0 0 16 16" version="1.1" xmlns="http://www.w3.org/2000/svg" xmlns:xlink="http://www.w3.org/1999/xlink">
    <g id="01-main-screens" stroke="none" stroke-width="1" fill="none" fill-rule="evenodd">
        <g id="02-editor" transform="translate(-1189.000000, -57.000000)" fill="#BFBFBF">
            <g id="btn-secondary" transform="translate(1177.000000, 49.000000)">
                <path d="M20.5764365,8 C20.820856,8 21.0294511,8.17670652 21.0696334,8.41780051 L21.3596721,10.154717 C22.0103545,10.3054695 22.6204788,10.56207 23.1709249,10.9053981 L24.6050796,9.88223028 C24.803972,9.74016429 25.0764214,9.76271288 25.2492521,9.93554362 L26.0644564,10.7507479 C26.2372871,10.9235786 26.2598357,11.196028 26.1177697,11.3949204 L25.0946019,12.8290751 C25.4381068,13.3798046 25.6947947,13.9902738 25.8455158,14.641333 L27.5821995,14.9303666 C27.7931567,14.9655261 27.9548173,15.1296267 27.9919363,15.3338444 L28,15.4235635 L28,16.5764365 C28,16.7903036 27.8647091,16.9767426 27.6693722,17.0469297 L27.5821995,17.0696334 L25.845283,17.3596721 C25.6945305,18.0103545 25.43793,18.6204788 25.0946019,19.1709249 L26.1177697,20.6050796 C26.2420775,20.7791105 26.2403522,21.0094584 26.1221954,21.1801092 L26.0644564,21.2492521 L25.2492521,22.0644564 C25.0980252,22.2156833 24.8705278,22.2518504 24.682774,22.1633562 L24.6050796,22.1177697 L23.1709249,21.0946019 C22.6204788,21.43793 22.0103545,21.6945305 21.3596721,21.845283 L21.0696334,23.5821995 C21.0344739,23.7931567 20.8703733,23.9548173 20.6661556,23.9919363 L20.5764365,24 L19.4235635,24 C19.2096964,24 19.0232574,23.8647091 18.9530703,23.6693722 L18.9303666,23.5821995 L18.641333,21.8455158 C17.9902738,21.6947947 17.3798046,21.4381068 16.8290751,21.0946019 L15.3949204,22.1177697 C15.2208895,22.2420775 14.9905416,22.2403522 14.8198908,22.1221954 L14.7507479,22.0644564 L13.9355436,21.2492521 C13.7843167,21.0980252 13.7481496,20.8705278 13.8366438,20.682774 L13.8822303,20.6050796 L14.9053981,19.1709249 C14.56207,18.6204788 14.3054695,18.0103545 14.154717,17.3596721 L12.4178005,17.0696334 C12.1767065,17.0294511 12,16.820856 12,16.5764365 L12,15.4235635 C12,15.179144 12.1767065,14.9705489 12.4178005,14.9303666 L14.1544842,14.641333 C14.3052053,13.9902738 14.5618932,13.3798046 14.9053981,12.8290751 L13.8822303,11.3949204 C13.7401643,11.196028 13.7627129,10.9235786 13.9355436,10.7507479 L14.7507479,9.93554362 C14.9235786,9.76271288 15.196028,9.74016429 15.3949204,9.88223028 L16.8290751,10.9053981 C17.3798046,10.5618932 17.9902738,10.3052053 18.641333,10.1544842 L18.9303666,8.41780051 C18.9705489,8.17670652 19.179144,8 19.4235635,8 L20.5764365,8 Z M20,13 C18.3431458,13 17,14.3431458 17,16 C17,17.6568542 18.3431458,19 20,19 C21.6568542,19 23,17.6568542 23,16 C23,14.3431458 21.6568542,13 20,13 Z" id="icn-gear"></path>
            </g>
        </g>
    </g>
</svg>