<?xml version="1.0" encoding="UTF-8" standalone="no"?><!DOCTYPE svg PUBLIC "-//W3C//DTD SVG 1.1//EN" "http://www.w3.org/Graphics/SVG/1.1/DTD/svg11.dtd"><svg width="100%" height="100%" viewBox="0 0 32 32" version="1.1" xmlns="http://www.w3.org/2000/svg" xmlns:xlink="http://www.w3.org/1999/xlink" xml:space="preserve" xmlns:serif="http://www.serif.com/" style="fill-rule:evenodd;clip-rule:evenodd;stroke-linejoin:round;stroke-miterlimit:2;"><g id="Group-6"><circle id="Oval" cx="16" cy="16" r="16" style="fill:url(#_Linear1);"/><g id="Group-2"><path id="Combined-Shape" d="M9.5,8l2.429,0c0.276,0 0.5,0.224 0.5,0.5l0,1.286c0,0.276 -0.224,0.5 -0.5,0.5l-2.429,0c-0.276,0 -0.5,-0.224 -0.5,-0.5l0,-1.286c0,-0.276 0.224,-0.5 0.5,-0.5Zm0,4.571l2.429,0c0.276,0 0.5,0.224 0.5,0.5l0,1.286c0,0.276 -0.224,0.5 -0.5,0.5l-2.429,0c-0.276,0 -0.5,-0.224 -0.5,-0.5l0,-1.286c0,-0.276 0.224,-0.5 0.5,-0.5Zm0,4.572l2.429,0c0.276,0 0.5,0.224 0.5,0.5l0,1.286c0,0.276 -0.224,0.5 -0.5,0.5l-2.429,0c-0.276,0 -0.5,-0.224 -0.5,-0.5l0,-1.286c0,-0.276 0.224,-0.5 0.5,-0.5Zm0,4.571l2.429,0c0.276,0 0.5,0.224 0.5,0.5l0,1.286c0,0.276 -0.224,0.5 -0.5,0.5l-2.429,0c-0.276,0 -0.5,-0.224 -0.5,-0.5l0,-1.286c0,-0.276 0.224,-0.5 0.5,-0.5Z" style="fill:#fff;fill-opacity:0.65;"/><path id="Combined-Shape1" serif:id="Combined-Shape" d="M15.214,8l5.857,0c0.277,0 0.5,0.224 0.5,0.5l0,1.286c0,0.276 -0.223,0.5 -0.5,0.5l-5.857,0c-0.276,0 -0.5,-0.224 -0.5,-0.5l0,-1.286c0,-0.276 0.224,-0.5 0.5,-0.5Zm4.572,4.571l4.714,0c0.276,0 0.5,0.224 0.5,0.5l0,1.286c0,0.276 -0.224,0.5 -0.5,0.5l-4.714,0c-0.276,0 -0.5,-0.224 -0.5,-0.5l0,-1.286c0,-0.276 0.224,-0.5 0.5,-0.5Zm0,4.572l4.714,0c0.276,0 0.5,0.224 0.5,0.5l0,1.286c0,0.276 -0.224,0.5 -0.5,0.5l-4.714,0c-0.276,0 -0.5,-0.224 -0.5,-0.5l0,-1.286c0,-0.276 0.224,-0.5 0.5,-0.5Zm-4.572,4.571l5.857,0c0.277,0 0.5,0.224 0.5,0.5l0,1.286c0,0.276 -0.223,0.5 -0.5,0.5l-5.857,0c-0.276,0 -0.5,-0.224 -0.5,-0.5l0,-1.286c0,-0.276 0.224,-0.5 0.5,-0.5Z" style="fill:#fff;"/></g></g><defs><linearGradient id="_Linear1" x1="0" y1="0" x2="1" y2="0" gradientUnits="userSpaceOnUse" gradientTransform="matrix(1.95943e-15,-32,32,1.95943e-15,16,32)"><stop offset="0" style="stop-color:#7400e1;stop-opacity:1"/><stop offset="1" style="stop-color:#4000bf;stop-opacity:1"/></linearGradient></defs></svg>