<svg width="32" height="32" viewBox="0 0 32 32" fill="none" xmlns="http://www.w3.org/2000/svg">
<path fill-rule="evenodd" clip-rule="evenodd" d="M28.9605 28.9605C24.9078 33.0132 7.09215 33.0132 3.03949 28.9605C-1.01316 24.9078 -1.01316 7.09215 3.03949 3.03949C7.09215 -1.01316 24.9078 -1.01316 28.9605 3.03949C33.0138 7.09215 33.0138 24.9078 28.9605 28.9605Z" fill="url(#paint0_linear)"/>
<path fill-rule="evenodd" clip-rule="evenodd" d="M21.3333 21.7143C21.5437 21.7143 21.7143 21.8848 21.7143 22.0952V23.619C21.7143 23.8294 21.5437 24 21.3333 24H15.2381C15.0277 24 14.8571 23.8294 14.8571 23.619V22.0952C14.8571 21.8848 15.0277 21.7143 15.2381 21.7143H21.3333ZM12.381 8C12.4861 8 12.5714 8.08528 12.5714 8.19048V10.0952C12.5714 10.2004 12.4861 10.2857 12.381 10.2857H11.4286V21.7143H12.381C12.4861 21.7143 12.5714 21.7996 12.5714 21.9048V23.8095C12.5714 23.9147 12.4861 24 12.381 24H8.19048C8.08528 24 8 23.9147 8 23.8095V21.9048C8 21.7996 8.08528 21.7143 8.19048 21.7143H9.14286V10.2857H8.19048C8.08528 10.2857 8 10.2004 8 10.0952V8.19048C8 8.08528 8.08528 8 8.19048 8H12.381ZM24.7619 17.1429C24.9723 17.1429 25.1429 17.3134 25.1429 17.5238V19.0476C25.1429 19.258 24.9723 19.4286 24.7619 19.4286H19.8095C19.5991 19.4286 19.4286 19.258 19.4286 19.0476V17.5238C19.4286 17.3134 19.5991 17.1429 19.8095 17.1429H24.7619ZM24.7619 12.5714C24.9723 12.5714 25.1429 12.742 25.1429 12.9524V14.4762C25.1429 14.6866 24.9723 14.8571 24.7619 14.8571H19.8095C19.5991 14.8571 19.4286 14.6866 19.4286 14.4762V12.9524C19.4286 12.742 19.5991 12.5714 19.8095 12.5714H24.7619ZM21.3333 8C21.5437 8 21.7143 8.17056 21.7143 8.38095V9.90476C21.7143 10.1152 21.5437 10.2857 21.3333 10.2857H15.2381C15.0277 10.2857 14.8571 10.1152 14.8571 9.90476V8.38095C14.8571 8.17056 15.0277 8 15.2381 8H21.3333Z" fill="white"/>
<defs>
<linearGradient id="paint0_linear" x1="32.0005" y1="32" x2="32.0005" y2="0" gradientUnits="userSpaceOnUse">
<stop stop-color="#7400E1"/>
<stop offset="1" stop-color="#4000BF"/>
</linearGradient>
</defs>
</svg>