<svg viewBox="0 0 18 18">
  <path
    d="M11.6779 6.09677C11.2394 3.39617 10.2052 1.5 9.00153 1.5C7.7979 1.5 6.76362 3.39617 6.32511 6.09677H11.6779ZM6.0983 9C6.0983 9.67137 6.13459 10.3155 6.1981 10.9355H11.8019C11.8654 10.3155 11.9017 9.67137 11.9017 9C11.9017 8.32863 11.8654 7.68448 11.8019 7.06452H6.1981C6.13459 7.68448 6.0983 8.32863 6.0983 9ZM15.9179 6.09677C15.0529 4.04335 13.3019 2.45565 11.1396 1.81452C11.8775 2.83669 12.3856 4.37601 12.6517 6.09677H15.9179ZM6.8604 1.81452C4.70112 2.45565 2.94709 4.04335 2.0852 6.09677H5.35132C5.61443 4.37601 6.12249 2.83669 6.8604 1.81452ZM16.2414 7.06452H12.7727C12.8362 7.6996 12.8725 8.3498 12.8725 9C12.8725 9.6502 12.8362 10.3004 12.7727 10.9355H16.2384C16.4048 10.3155 16.4985 9.67137 16.4985 9C16.4985 8.32863 16.4048 7.68448 16.2414 7.06452ZM5.13056 9C5.13056 8.3498 5.16685 7.6996 5.23036 7.06452H1.76161C1.5983 7.68448 1.50153 8.32863 1.50153 9C1.50153 9.67137 1.5983 10.3155 1.76161 10.9355H5.22733C5.16685 10.3004 5.13056 9.6502 5.13056 9ZM6.32511 11.9032C6.76362 14.6038 7.7979 16.5 9.00153 16.5C10.2052 16.5 11.2394 14.6038 11.6779 11.9032H6.32511ZM11.1427 16.1855C13.3019 15.5444 15.056 13.9567 15.9209 11.9032H12.6548C12.3886 13.624 11.8806 15.1633 11.1427 16.1855ZM2.0852 11.9032C2.95011 13.9567 4.70112 15.5444 6.86342 16.1855C6.12552 15.1633 5.61745 13.624 5.35132 11.9032H2.0852Z"
  />
</svg>