<svg width="827" height="350" viewBox="0 0 827 350" fill="none" xmlns="http://www.w3.org/2000/svg">
<g clip-path="url(#clip0_0_245)">
<rect width="826.67" height="350" rx="6" fill="url(#paint0_linear_0_245)"/>
<mask id="mask0_0_245" style="mask-type:alpha" maskUnits="userSpaceOnUse" x="-528" y="-42" width="1441" height="254">
<path d="M913 192.35C837.678 193.877 775.481 199.78 697.881 197.47C636.993 195.658 577.496 188.64 515.949 189.05C463.498 189.402 411.778 195.943 360.007 198.527C304.828 201.281 251.568 200.648 199.427 193.66C147.287 186.671 84.7603 189.746 25.6725 198.428C-28.3073 206.354 -72.7806 215.377 -133.908 210.731C-198.553 205.817 -255.632 191.403 -321.078 188.01C-389.632 184.455 -468.479 205.84 -528 191.986" fill="white"/>
<path d="M913 192.35C837.678 193.877 775.481 199.78 697.881 197.47C636.993 195.658 577.496 188.64 515.949 189.05C463.498 189.402 411.778 195.943 360.007 198.527C304.828 201.281 251.568 200.648 199.427 193.66C147.287 186.671 84.7603 189.746 25.6725 198.428C-28.3073 206.354 -72.7806 215.377 -133.908 210.731C-198.553 205.817 -255.632 191.403 -321.078 188.01C-389.632 184.455 -468.479 205.84 -528 191.986V-41.5H913V192.35Z" fill="white"/>
</mask>
<g mask="url(#mask0_0_245)">
<text stroke="#5E01D3" stroke-opacity="0.5" xml:space="preserve" style="white-space: pre" font-family="Inter" font-size="96" font-weight="900" letter-spacing="0em"><tspan x="75" y="206.909">Patch Release</tspan></text>
<text stroke="#A86DF2" stroke-opacity="0.25" xml:space="preserve" style="white-space: pre" font-family="Inter" font-size="96" font-weight="900" letter-spacing="0em"><tspan x="75" y="185.909">Patch Release</tspan></text>
<text stroke="#A86DF2" stroke-opacity="0.5" xml:space="preserve" style="white-space: pre" font-family="Inter" font-size="96" font-weight="900" letter-spacing="0em"><tspan x="75" y="166.909">Patch Release</tspan></text>
<text fill="white" stroke="white" xml:space="preserve" style="white-space: pre" font-family="Inter" font-size="96" font-weight="900" letter-spacing="0em"><tspan x="75" y="144.909">Patch Release</tspan></text>
</g>
<g filter="url(#filter0_d_0_245)">
<mask id="mask1_0_245" style="mask-type:alpha" maskUnits="userSpaceOnUse" x="-529" y="188" width="1444" height="158">
<path d="M913.001 345.107C670.271 345.142 425.663 344.293 182.993 343.334C77.9959 342.916 -27.7203 343.053 -132.707 343.933C-264.128 345.033 -395.61 343.997 -527.001 345.106" stroke="url(#paint1_linear_0_245)" stroke-miterlimit="10"/>
<path d="M913.5 341.752C844.68 341.752 774.341 341.92 705.53 341.838C644.035 341.765 582.679 340.185 521.203 339.912C406.686 339.406 292.189 339.995 177.681 339.396C76.0445 338.864 -26.6414 337.455 -128.208 339.605C-187.405 340.872 -245.993 341.448 -305.24 341.971C-379.187 342.623 -453.044 340.853 -526.961 341.752" stroke="url(#paint2_linear_0_245)" stroke-miterlimit="10"/>
<path d="M913.5 337.173C845.669 337.173 776.16 337.534 708.348 337.145C644.624 336.777 581.27 334.203 517.596 333.541C402.859 332.347 289.021 335.758 174.404 335.149C73.5463 334.624 -25.882 330.355 -126.849 334.174C-185.867 336.407 -243.055 338.155 -302.502 338.665C-377.448 339.298 -452.025 336.217 -526.961 337.173" stroke="url(#paint3_linear_0_245)" stroke-miterlimit="10"/>
<path d="M913.5 332.682C846.899 332.682 778.308 333.259 711.756 332.464C645.204 331.669 579.601 328.011 513.249 326.83C452.933 325.757 393.466 326.045 333.469 328.382C279.698 330.478 227.465 331.992 173.254 331.764C125.739 331.561 81.2208 329.275 34.2946 327.144C-19.4067 324.702 -74.6968 325.842 -127.898 328.952C-186.456 332.378 -241.686 335.656 -301.483 336.03C-376.909 336.505 -451.485 331.862 -526.961 332.682" stroke="url(#paint4_linear_0_245)" stroke-miterlimit="10"/>
<path d="M913.5 328.255C848.337 328.255 780.686 329.031 715.633 327.79C646.123 326.466 577.793 321.671 508.433 319.873C448.88 318.308 388.93 319.381 330.311 323.059C277.979 326.295 227.385 329.186 173.894 329.053C124.36 328.93 79.542 324.955 31.4567 321.741C-23.124 318.093 -77.135 319.477 -130.886 323.901C-188.495 328.651 -241.676 333.769 -301.883 333.905C-377.438 334.079 -451.275 327.723 -526.961 328.258" stroke="url(#paint5_linear_0_245)" stroke-miterlimit="10"/>
<path d="M913.5 323.898C849.876 323.879 783.194 324.848 719.79 323.154C647.003 321.225 575.894 315.275 503.376 312.789C442.52 310.705 386.281 312.643 327.583 317.878C277.329 322.362 228.654 326.852 175.942 326.862C123.82 326.862 77.4535 320.892 27.9892 316.535C-28.3602 311.572 -80.3227 313.017 -135.383 319.011C-191.423 325.111 -242.876 332.312 -303.412 332.154C-378.857 331.938 -451.305 323.752 -526.961 323.898" stroke="url(#paint6_linear_0_245)" stroke-miterlimit="10"/>
<path d="M913.5 319.61C851.485 319.581 785.783 320.658 724.137 318.574C648.012 316.003 574.245 308.903 498.39 305.698C436.684 303.092 383.123 305.879 325.375 312.852C277.729 318.606 230.933 324.842 179.08 325.038C124.28 325.247 74.8752 317.048 24.1918 311.528C-34.336 305.153 -84.31 306.509 -140.869 314.277C-194.73 321.675 -244.954 331.172 -305.75 330.64C-380.926 329.981 -451.465 319.914 -526.941 319.61" stroke="url(#paint7_linear_0_245)" stroke-miterlimit="10"/>
<path d="M913.5 315.392C853.074 315.354 788.371 316.5 728.394 314.071C649.011 310.857 572.576 302.642 493.563 298.722C430.609 295.596 380.085 299.174 323.556 307.985C278.848 314.952 233.941 322.998 182.808 323.423C125.329 323.895 71.9575 313.245 20.1049 306.699C-7.05555 303.288 -35.6849 300.093 -65.2936 300.827C-94.2727 301.55 -121.713 305.416 -147.054 309.695C-198.138 318.299 -247.902 330.143 -308.688 329.237C-383.534 328.119 -451.715 316.177 -526.971 315.401" stroke="url(#paint8_linear_0_245)" stroke-miterlimit="10"/>
<path d="M914 311.246C855.043 311.199 790.82 312.374 732.483 309.663C650.072 305.844 571.249 296.568 489.308 291.97C424.914 288.353 377.309 292.657 322.308 303.282C280.608 311.338 237.579 321.184 186.906 321.852C126.949 322.641 68.991 309.486 16.1491 302.04C-11.5309 298.139 -42.0589 294.025 -72.9766 294.931C-101.956 295.78 -129.106 300.416 -153.339 305.223C-201.654 314.812 -250.908 329.047 -311.844 327.777C-386.371 326.219 -451.923 312.462 -526.979 311.246" stroke="url(#paint9_linear_0_245)" stroke-miterlimit="10"/>
<path d="M913.5 307.174C855.952 307.117 793.139 308.292 736.29 305.381C651.191 301.021 570.249 290.766 485.77 285.554C453.604 283.571 423.115 282.425 391.608 285.902C365.937 288.737 343.353 293.712 321.569 298.741C282.597 307.731 241.457 319.262 190.903 320.164C128.748 321.276 66.133 305.736 12.4317 297.531C-15.728 293.227 -48.1346 288.242 -80.2315 289.297C-109.341 290.247 -136.131 295.59 -159.324 300.865C-205.071 311.265 -253.736 327.726 -315.002 326.134C-389.259 324.199 -452.093 308.738 -527.019 307.158" stroke="url(#paint10_linear_0_245)" stroke-miterlimit="10"/>
<path d="M913.001 303.168C856.661 303.108 795.166 304.276 739.626 301.233C652.369 296.451 569.889 285.316 483.281 279.613C451.004 277.488 420.606 276.171 389.259 280.116C363.827 283.337 342.153 288.863 321.428 294.386C284.744 304.149 245.323 317.127 194.519 318.22C162.053 318.92 129.406 313.552 101.367 309.007C70.259 303.966 40.3505 298.221 9.25291 293.173C-19.3265 288.537 -53.3019 282.849 -86.478 284.037C-115.797 285.085 -142.168 290.972 -164.532 296.641C-208.18 307.725 -255.926 326.048 -317.781 324.192C-391.908 321.976 -452.114 304.976 -527.03 303.155" stroke="url(#paint11_linear_0_245)" stroke-miterlimit="10"/>
<path d="M913.5 299.235C858.17 299.174 796.806 300.346 742.335 297.246C653.539 292.195 570.099 280.3 482.043 274.242C449.916 272.025 419.288 270.61 388.261 274.837C362.859 278.299 341.834 284.3 321.859 290.203C286.704 300.587 248.771 314.641 197.348 315.854C163.992 316.633 130.397 310.819 101.917 306.012C69.7703 300.58 38.9625 294.399 6.81569 288.961C-22.1634 284.056 -57.1381 277.922 -91.2036 279.173C-120.832 280.262 -146.754 286.517 -168.508 292.511C-210.807 304.162 -257.094 323.8 -319.939 321.82C-394.065 319.486 -451.973 301.122 -527.039 299.247" stroke="url(#paint12_linear_0_245)" stroke-miterlimit="10"/>
<path d="M913.001 295.371C858.45 295.32 797.934 296.514 744.263 293.439C654.717 288.309 571.047 275.791 482.311 269.568C450.624 267.351 419.427 265.907 388.839 270.163C363.227 273.726 342.492 280.05 322.886 286.203C288.291 297.078 251.478 311.696 198.976 312.874C164.88 313.64 131.195 307.766 102.316 302.74C69.4892 297.04 38.1119 290.542 5.29552 284.835C-24.0533 279.73 -59.178 273.498 -93.9429 274.739C-123.921 275.81 -149.403 282.178 -170.887 288.429C-212.857 300.637 -256.935 320.772 -321.249 318.812C-395.565 316.548 -451.725 297.053 -527.1 295.377" stroke="url(#paint13_linear_0_245)" stroke-miterlimit="10"/>
<path d="M913.001 291.571C858.65 291.463 798.314 292.806 744.872 289.671C655.936 284.442 573.336 271.55 485.3 265.182C453.702 262.898 422.525 261.53 391.957 265.736C365.976 269.318 344.831 275.718 324.935 281.947C289.701 292.98 252.497 307.785 199.306 309.166C164.971 310.056 131.485 304.254 102.476 299.149C69.5994 293.36 38.282 286.735 5.41567 280.943C-24.0731 275.743 -59.0179 269.596 -94.0426 270.926C-124.221 272.073 -149.553 278.454 -171.077 284.775C-213.217 297.154 -256.456 317.023 -321.279 315.176C-395.805 313.061 -451.385 293.034 -527.07 291.571" stroke="url(#paint14_linear_0_245)" stroke-miterlimit="10"/>
<path d="M913.5 287.856C858.92 287.66 798.254 289.354 744.622 286C657.265 280.538 576.524 267.433 490.096 260.84C458.119 258.398 427.761 257.128 396.753 261.362C370.302 264.969 348.408 271.303 327.783 277.478C291.379 288.391 252.607 303.345 199.416 305.229C165.29 306.439 131.684 300.622 102.925 295.52C70.4487 289.759 39.6008 283.128 7.13424 277.361C-22.2945 272.133 -57.2393 266.034 -92.2141 267.614C-122.302 268.972 -148.004 275.445 -169.828 281.697C-212.188 293.826 -256.675 313.321 -320.719 311.528C-395.425 309.435 -451.185 289.294 -527.05 287.856" stroke="url(#paint15_linear_0_245)" stroke-miterlimit="10"/>
<path d="M913.001 284.205C858.11 283.97 798.084 286.137 744.123 282.587C658.545 276.956 579.912 263.681 495.303 256.935C463.056 254.357 433.407 253.208 402.05 257.388C375.189 260.97 352.416 267.139 331.021 273.267C293.398 284.034 252.838 298.934 199.696 301.274C165.88 302.766 132.534 297.068 104.035 291.989C72.1079 286.289 41.9097 279.698 10.0027 274.001C-19.3361 268.763 -53.9511 262.838 -88.766 264.643C-118.884 266.208 -145.045 272.709 -167.359 278.894C-210.278 290.77 -256.225 309.777 -319.78 308.01C-394.815 305.926 -450.885 285.655 -527.08 284.224" stroke="url(#paint16_linear_0_245)" stroke-miterlimit="10"/>
<path d="M913.001 280.623C857.731 280.398 797.715 283.138 743.374 279.407C659.754 273.672 583.409 260.26 500.789 253.398C468.412 250.709 439.323 249.699 407.706 253.759C380.366 257.268 356.743 263.259 334.519 269.276C295.327 279.85 253.347 294.535 200.056 297.306C166.64 299.041 133.884 293.591 105.664 288.546C74.4365 282.96 45.0077 276.427 13.8002 270.834C-15.4287 265.593 -49.3742 259.963 -83.9792 261.967C-114.237 263.725 -140.938 270.201 -163.921 276.3C-207.7 287.913 -255.286 306.338 -318.5 304.58C-393.996 302.481 -450.495 282.074 -527.15 280.633" stroke="url(#paint17_linear_0_245)" stroke-miterlimit="10"/>
<path d="M913.001 277.111C857.281 276.934 797.275 280.332 742.445 276.44C660.924 270.654 587.007 257.122 506.515 250.222C474.158 247.441 445.469 246.577 413.692 250.459C385.862 253.86 361.41 259.643 338.276 265.476C297.306 275.81 254.047 290.143 200.556 293.313C136.002 297.141 70.7692 277.216 18.457 267.823C-10.662 262.591 -43.6882 257.35 -77.9935 259.545C-108.491 261.499 -135.752 267.911 -159.525 273.919C-204.412 285.259 -253.777 303.025 -316.831 301.258C-392.886 299.13 -449.925 278.574 -527.129 277.111" stroke="url(#paint18_linear_0_245)" stroke-miterlimit="10"/>
<path d="M913.001 273.607C856.791 273.509 796.756 277.7 741.356 273.672C662.023 267.883 590.654 254.288 512.401 247.365C480.154 244.515 451.744 243.806 419.877 247.463C391.538 250.722 366.236 256.248 342.193 261.898C299.444 271.937 254.896 285.791 201.135 289.354C137.561 293.56 75.1361 274.21 23.7931 264.97C-4.5964 259.868 -37.6926 254.725 -71.0585 257.353C-102.036 259.792 -129.327 265.704 -154.448 271.721C-200.625 282.773 -251.888 299.82 -314.943 298.034C-391.647 295.865 -449.296 275.154 -527.15 273.65" stroke="url(#paint19_linear_0_245)" stroke-miterlimit="10"/>
<path d="M913.001 270.107C856.262 270.107 796.146 275.217 740.127 271.04C663.052 265.293 594.302 251.64 518.357 244.756C386.452 232.788 317.641 276.969 201.775 285.424C139.32 289.987 80.0527 271.335 29.6391 262.281C1.37943 257.214 -30.4377 252.6 -63.3839 255.377C-94.7513 258.022 -122.681 263.804 -148.812 269.707C-196.428 280.474 -249.68 296.745 -312.864 294.931C-390.278 292.714 -448.606 271.842 -527.179 270.299" stroke="url(#paint20_linear_0_245)" stroke-miterlimit="10"/>
<path d="M913.001 267.107C855.712 267.24 795.477 272.858 738.788 268.558C664.012 262.886 597.889 249.202 524.312 242.377C395.135 230.4 316.462 272.462 202.464 281.522C141.089 286.406 85.3789 268.58 35.8846 259.7C7.74489 254.652 -22.6832 250.646 -55.1598 253.55C-86.9468 256.4 -115.586 262.037 -142.767 267.816C-191.911 278.267 -247.191 293.756 -310.646 291.9C-388.819 289.617 -447.876 268.592 -527.209 266.999" stroke="url(#paint21_linear_0_245)" stroke-miterlimit="10"/>
<path d="M913.001 264.107C855.142 264.376 794.767 270.6 737.369 266.192C664.881 260.625 601.467 246.925 530.168 240.192C403.729 228.25 315.323 268.013 203.174 277.678C142.898 282.872 90.975 265.923 42.35 257.217C14.3102 252.198 -14.6089 248.834 -46.5859 251.833C-78.8126 254.87 -108.191 260.384 -136.451 266.021C-187.174 276.155 -244.493 290.836 -308.267 288.939C-387.21 286.586 -447.047 265.403 -527.169 263.757" stroke="url(#paint22_linear_0_245)" stroke-miterlimit="10"/>
<path d="M913.001 260.607C854.583 261.016 794.018 268.418 735.86 263.918C665.611 258.478 604.814 244.772 535.814 238.153C412.063 226.28 314.204 263.655 203.894 273.9C144.706 279.398 96.6809 263.351 48.8854 254.814C20.9655 249.826 -6.54459 247.124 -37.9919 250.231C-70.6683 253.461 -100.817 258.835 -130.135 264.333C-182.448 274.15 -241.785 288.021 -305.959 286.076C-385.731 283.657 -446.307 262.325 -527.229 260.609" stroke="url(#paint23_linear_0_245)" stroke-miterlimit="10"/>
<path d="M913.001 257.607C854.043 258.152 793.259 266.287 734.431 261.711C666.34 256.413 608.112 242.71 541.31 236.221C420.008 224.44 313.075 259.383 204.553 270.201C146.445 275.996 102.327 260.853 55.311 252.467C27.511 247.511 1.34994 245.471 -29.4978 248.667C-62.6239 252.093 -93.5316 257.344 -123.9 262.689C-177.751 272.171 -239.067 285.259 -303.68 283.274C-384.252 280.788 -445.578 259.282 -527.289 257.527" stroke="url(#paint24_linear_0_245)" stroke-miterlimit="10"/>
<path d="M913.001 254.607C853.454 255.282 792.509 264.184 732.962 259.545C666.92 254.399 611.15 240.705 546.426 234.356C427.452 222.683 311.966 255.2 205.262 266.591C148.124 272.69 107.953 258.386 61.5861 250.168C33.876 245.259 9.084 243.834 -21.2441 247.121C-54.7999 250.744 -86.4572 255.89 -117.815 261.081C-173.145 270.236 -236.349 282.555 -301.412 280.519C-382.743 277.969 -444.789 256.308 -527.249 254.5" stroke="url(#paint25_linear_0_245)" stroke-miterlimit="10"/>
<path d="M913.001 251.607C852.894 252.392 791.76 262.088 731.543 257.401C667.389 252.41 613.928 238.717 551.143 232.516C490.237 226.499 425.444 233.292 368.555 240.55C313.695 247.552 261.542 256.736 205.862 263.085C149.443 269.52 113.459 255.89 67.4423 247.884C6.33636 237.26 -56.2486 250.735 -112.178 259.472C-168.847 268.314 -233.83 279.898 -299.323 277.817C-381.374 275.214 -444.099 253.401 -527.289 251.549" stroke="url(#paint26_linear_0_245)" stroke-miterlimit="10"/>
<path d="M913.001 248.607C852.334 249.484 791.17 259.972 730.184 255.25C667.739 250.412 616.406 236.728 555.311 230.663C494.964 224.665 428.462 231.179 371.303 237.827C315.334 244.338 262.062 252.936 206.392 259.7C150.722 266.464 118.206 253.502 72.7786 245.611C13.0616 235.239 -52.1313 249.728 -107.092 257.85C-164.95 266.401 -231.582 277.282 -297.434 275.173C-380.125 272.522 -443.469 250.564 -527.269 248.67" stroke="url(#paint27_linear_0_245)" stroke-miterlimit="10"/>
<path d="M913.001 246.107C851.765 247.057 790.63 257.819 728.934 253.069C667.978 248.379 618.534 234.701 559.057 228.754C499.17 222.784 431.149 229.032 373.73 235.129C316.771 241.18 262.431 249.262 206.851 256.441C180.63 259.827 161.413 259.966 136.062 255.599C115.457 252.049 98.0291 246.893 77.454 243.318C50.0038 238.542 28.1396 238.675 -0.6097 242.225C-35.1548 246.497 -68.8105 251.409 -102.706 256.182C-161.534 264.441 -229.615 274.689 -295.767 272.56C-379.027 269.881 -442.901 247.777 -527.3 245.861" stroke="url(#paint28_linear_0_245)" stroke-miterlimit="10"/>
<path d="M913.001 243.107C851.195 244.057 790.22 255.602 727.805 250.836C668.058 246.273 620.302 232.544 562.024 226.749C502.447 220.824 433.177 226.812 375.529 232.449C317.881 238.086 262.53 245.75 207.13 253.35C181.529 256.862 162.812 257.36 137.681 253.015C117.755 249.569 101.127 244.483 81.2512 241.012C53.9509 236.243 32.4264 236.75 4.17678 240.417C-30.5382 244.924 -64.7135 249.826 -99.2486 254.465C-158.816 262.465 -228.226 272.142 -294.478 270.008C-378.197 267.313 -442.501 245.076 -527.31 243.147" stroke="url(#paint29_linear_0_245)" stroke-miterlimit="10"/>
<path d="M913.001 240.607C850.616 241.532 789.96 253.309 726.846 248.531C667.988 244.068 621.722 230.236 564.253 224.611C504.756 218.781 434.736 224.497 376.728 229.732C318.25 235.005 262.421 242.349 207.25 250.367C182.169 254.009 163.662 254.775 138.72 250.431C119.334 247.058 103.375 242.004 84.0494 238.599C56.879 233.814 35.3745 234.59 7.55457 238.397C-27.2104 243.147 -61.7855 248.062 -96.8502 252.603C-156.807 260.371 -227.376 269.549 -293.578 267.43C-377.628 264.738 -442.241 242.374 -527.41 240.452" stroke="url(#paint30_linear_0_245)" stroke-miterlimit="10"/>
<path d="M913.001 238.107C850.046 238.946 789.88 250.912 726.066 246.121C667.818 241.747 622.551 227.854 565.772 222.297C506.464 216.495 435.526 222.088 377.368 226.996C318.29 231.984 262.211 239.128 207.3 247.58C182.628 251.381 164.021 252.299 139.209 247.926C120.223 244.578 104.764 239.521 85.8079 236.142C58.7374 231.316 36.9331 232.228 9.4429 236.208C-25.2521 241.231 -60.0869 246.181 -95.5414 250.646C-155.678 258.218 -227.066 266.984 -292.999 264.897C-377.248 262.233 -442.021 239.749 -527.39 237.852" stroke="url(#paint31_linear_0_245)" stroke-miterlimit="10"/>
<path d="M913.001 235.107C849.726 235.861 789.94 248.426 725.737 243.59C667.688 239.22 622.691 225.34 566.092 219.814C506.844 214.031 435.586 219.738 377.408 224.542C318.121 229.438 262.221 236.528 207.24 245.018C182.658 248.819 163.792 249.61 139.15 245.265C120.293 241.94 104.934 236.927 86.0779 233.593C59.0973 228.823 36.8934 229.71 9.66303 233.805C-24.8821 238.998 -59.7569 243.986 -95.3612 248.407C-155.208 255.84 -227.526 264.507 -292.949 262.341C-377.078 259.561 -442.271 237.456 -527.42 235.328" stroke="url(#paint32_linear_0_245)" stroke-miterlimit="10"/>
<path d="M913.001 233.107C849.586 233.823 790.419 246.021 726.066 241.128C668.108 236.72 622.88 222.957 566.241 217.466C506.994 211.721 435.895 217.678 377.807 222.513C318.71 227.435 263.05 234.513 207.69 242.601C155.287 250.255 129.316 238.484 86.1572 231.143C59.1767 226.554 36.8327 227.39 9.85217 231.501C-24.543 236.742 -59.3579 241.717 -94.9522 246.087C-154.449 253.39 -227.707 262.099 -292.66 259.749C-376.429 256.715 -442.422 235.51 -527.001 232.916" stroke="url(#paint33_linear_0_245)" stroke-miterlimit="10"/>
<path d="M913.001 230.607C849.397 231.297 789.88 243.59 725.327 238.656C667.368 234.223 621.961 220.605 565.292 215.165C506.045 209.465 435.156 215.649 377.158 220.501C318.29 225.425 262.84 232.472 207.16 240.151C155.198 247.321 128.297 235.759 85.1084 228.751C58.1278 224.361 35.5841 225.172 8.84334 229.289C-25.392 234.558 -60.1069 239.496 -95.6912 243.79C-154.948 250.944 -228.935 259.561 -293.349 257.052C-376.699 253.81 -443.5 233.526 -527.46 230.521" stroke="url(#paint34_linear_0_245)" stroke-miterlimit="10"/>
<path d="M913.001 228.107C849.177 228.778 789.73 241.263 724.937 236.307C667.049 231.879 621.372 218.417 564.663 213.034C505.415 207.428 434.756 213.768 376.868 218.623C318.28 223.532 262.95 230.524 207.07 237.779C155.478 244.471 127.658 233.165 84.3589 226.483C57.3084 222.312 34.5948 223.123 8.05392 227.237C-25.9915 232.516 -60.6366 237.396 -96.161 241.589C-155.268 248.572 -229.705 256.976 -293.679 254.338C-376.619 250.921 -444.19 231.591 -527.51 228.215" stroke="url(#paint35_linear_0_245)" stroke-miterlimit="10"/>
<path d="M913.001 226.107C848.907 226.772 789.55 238.986 724.427 234.026C666.589 229.625 620.632 216.314 563.873 211.038C504.646 205.531 434.347 212.014 376.478 216.853C318.21 221.73 263.05 228.649 206.941 235.467C155.738 241.69 126.938 230.682 83.4397 224.361C56.2993 220.415 33.4058 221.255 7.03478 225.356C-26.7445 230.662 -61.4072 235.383 -96.8004 239.499C-155.858 246.288 -230.504 254.383 -294.108 251.625C-376.508 248.068 -444.909 229.713 -527.5 226.018" stroke="url(#paint36_linear_0_245)" stroke-miterlimit="10"/>
<path d="M913.001 223.607C848.617 224.272 789.251 236.772 723.808 231.819C666.019 227.452 619.753 214.319 562.924 209.151C503.717 203.768 433.717 210.351 375.959 215.168C318 219.994 262.99 226.819 206.751 233.194C155.927 238.957 126.089 228.276 82.3303 222.338C55.0599 218.636 31.9966 219.522 5.77553 223.604C-27.8006 228.875 -62.3368 233.508 -97.6499 237.478C-156.737 244.056 -231.374 251.71 -294.638 248.879C-376.509 245.215 -445.689 227.864 -527.56 223.88" stroke="url(#paint37_linear_0_245)" stroke-miterlimit="10"/>
<path d="M913.001 222.107C848.287 222.775 788.911 234.612 723.099 229.697C665.35 225.384 618.754 212.441 561.905 207.397C502.727 202.146 433.098 208.809 375.389 213.585C317.861 218.335 262.87 225.052 206.571 230.974C156.107 236.284 125.17 225.967 81.1115 220.431C53.6913 216.986 30.4481 217.939 4.33689 222.015C-29.0095 227.235 -63.3904 231.764 -98.5889 235.572C-157.776 241.906 -232.183 249.05 -295.177 246.152C-376.479 242.415 -446.408 226.087 -527.54 221.86" stroke="url(#paint38_linear_0_245)" stroke-miterlimit="10"/>
<path d="M913.001 220.107C847.928 220.791 788.481 232.522 722.289 227.633C664.581 223.395 617.645 210.659 560.736 205.75C501.598 200.651 432.348 207.362 374.77 212.084C317.641 216.77 262.711 223.335 206.391 228.801C156.277 233.662 124.18 223.734 79.7925 218.623C52.2024 215.456 28.7793 216.482 2.74808 220.523C-30.3774 225.682 -64.6153 230.089 -99.7081 233.713C-159.085 239.803 -233.072 246.342 -295.837 243.394C-376.548 239.594 -447.197 224.327 -527.569 219.88" stroke="url(#paint39_linear_0_245)" stroke-miterlimit="10"/>
<path d="M913.001 218.107C847.538 218.81 788.082 230.489 721.4 225.666C663.732 221.492 616.426 208.971 559.457 204.214C500.369 199.283 431.549 206.016 374.05 210.677C317.321 215.279 262.441 221.679 206.172 226.683C156.397 231.116 123.071 221.594 78.3337 216.922C50.5538 214.025 26.9508 215.162 0.979536 219.139C-31.9145 224.219 -65.99 228.492 -100.947 231.921C-160.554 237.732 -233.941 243.597 -296.526 240.613C-376.638 236.813 -447.957 222.594 -527.569 217.964" stroke="url(#paint40_linear_0_245)" stroke-miterlimit="10"/>
<path d="M913.001 216.107C847.128 216.835 787.591 228.516 720.489 223.76C662.791 219.684 615.115 207.378 558.076 202.786C499.049 198.035 430.708 204.765 373.21 209.357C316.9 213.86 262.06 220.077 205.85 224.615C156.416 228.608 121.791 219.529 76.6835 215.32C48.7036 212.711 24.9308 213.958 -1.02047 217.917C-33.6751 222.908 -67.5804 227.032 -102.387 230.245C-162.224 235.759 -234.872 240.902 -297.317 237.884C-376.799 234.061 -448.758 220.951 -527.611 216.162" stroke="url(#paint41_linear_0_245)" stroke-miterlimit="10"/>
<path d="M913.001 214.107C846.719 214.858 787.093 226.603 719.401 221.926C661.793 217.942 613.718 205.877 556.619 201.459C497.661 196.895 429.79 203.609 372.422 208.109C316.522 212.505 261.721 218.515 205.632 222.591C156.507 226.163 120.513 217.524 75.056 213.8C46.8764 211.485 22.9136 212.85 -3.04763 216.78C-35.4554 221.671 -69.179 225.634 -103.815 228.621C-164.042 233.814 -235.79 238.153 -298.135 235.141C-376.998 231.341 -449.526 219.332 -527.629 214.408" stroke="url(#paint42_linear_0_245)" stroke-miterlimit="10"/>
<path d="M913.001 212.607C846.239 213.402 786.482 224.751 718.311 220.162C660.712 216.289 612.217 204.464 555.079 200.23C496.171 195.869 428.81 202.545 371.521 206.969C316.041 211.254 261.281 217.036 205.341 220.65C156.506 223.817 119.093 215.643 73.2962 212.416C44.9067 210.405 20.7641 211.916 -5.23717 215.792C-37.3986 220.573 -70.9352 224.365 -105.385 227.113C-165.981 231.965 -236.73 235.471 -298.995 232.456C-377.239 228.671 -450.286 217.809 -527.65 212.771" stroke="url(#paint43_linear_0_245)" stroke-miterlimit="10"/>
<path d="M913.001 211.107C845.759 211.943 785.882 222.962 717.142 218.474C659.593 214.715 610.709 203.14 553.47 199.1C494.642 194.945 427.801 201.573 370.602 205.899C315.522 210.063 260.831 215.602 205.071 218.753C156.486 221.499 117.624 213.819 71.4777 211.073C42.8883 209.373 18.5759 211.032 -7.51531 214.874C-39.4263 219.536 -72.7685 223.144 -107.014 225.641C-167.97 230.125 -237.639 232.76 -299.875 229.758C-377.509 226.018 -451.015 216.302 -527.67 211.162" stroke="url(#paint44_linear_0_245)" stroke-miterlimit="10"/>
<path d="M913.001 210.107C845.29 210.987 785.243 221.236 715.973 216.856C658.414 213.217 609.12 201.899 551.811 198.058C493.064 194.121 426.751 200.683 369.593 204.908C314.902 208.952 260.291 214.224 204.711 216.916C156.336 219.256 115.995 212.077 69.519 209.838C40.7198 208.448 16.2374 210.266 -9.95367 214.05C-41.6164 218.592 -74.763 222.014 -108.792 224.254C-170.158 228.348 -238.639 230.084 -300.854 227.104C-377.798 223.411 -451.745 214.867 -527.69 209.642" stroke="url(#paint45_linear_0_245)" stroke-miterlimit="10"/>
<path d="M913.001 208.107C844.8 209.035 784.583 219.557 714.744 215.311C657.185 211.799 607.481 200.737 550.102 197.104C491.435 193.399 425.662 199.879 368.573 203.996C314.253 207.913 259.742 212.904 204.402 215.14C156.197 217.087 114.387 210.418 67.6106 208.686C38.6315 207.612 13.9593 209.594 -12.3317 213.331C-43.7486 217.744 -76.6949 220.97 -110.491 222.943C-172.246 226.626 -239.518 227.446 -301.733 224.488C-378.118 220.859 -452.354 213.496 -527.64 208.195" stroke="url(#paint46_linear_0_245)" stroke-miterlimit="10"/>
<path d="M913.001 207.107C844.3 208.082 783.894 217.974 713.495 213.838C655.946 210.453 605.802 199.657 548.354 196.249C489.786 192.766 424.563 199.172 367.484 203.175C313.523 206.975 259.133 211.659 204.022 213.442C155.907 215 112.668 208.85 65.5321 207.628C36.3432 206.871 11.5711 209.028 -14.9698 212.714C-46.1442 216.995 -78.8895 220.021 -112.439 221.72C-253.338 229.096 -391.408 216.653 -527.78 206.836" stroke="url(#paint47_linear_0_245)" stroke-miterlimit="10"/>
<path d="M913.001 206.107C843.791 207.136 783.195 216.435 712.216 212.429C654.667 209.18 604.094 198.653 546.575 195.445C488.107 192.183 423.434 198.511 366.475 202.396C312.824 206.067 258.593 210.446 203.732 211.767C155.627 212.935 111.029 207.333 63.5435 206.605C34.1847 206.162 9.20275 208.505 -17.488 212.137C-48.3058 216.359 -81.0321 219.051 -114.258 220.539C-251.569 226.692 -394.786 215.269 -527.75 205.519" stroke="url(#paint48_linear_0_245)" stroke-miterlimit="10"/>
<path d="M913.001 204.607C843.281 205.69 782.485 214.965 710.926 211.092C653.368 207.967 602.374 197.722 544.786 194.729C486.418 191.699 422.304 197.94 365.405 201.696C312.044 205.227 258.003 209.297 203.392 210.187C155.197 210.972 109.34 205.899 61.4945 205.687C31.9658 205.557 6.82394 208.084 -20.0767 211.672C-50.6946 215.754 -83.2011 218.215 -116.147 219.437C-178.912 221.765 -242.556 219.782 -304.801 216.935C-379.487 213.518 -454.283 209.769 -527.77 204.268" stroke="url(#paint49_linear_0_245)" stroke-miterlimit="10"/>
<path d="M913.001 203.107C843.371 204.225 782.635 213.445 711.146 209.905C653.818 207.055 602.724 197.209 545.586 194.223C487.827 191.205 425.003 197.193 368.603 200.81C314.083 204.293 258.852 208.185 203.043 208.673C153.498 209.107 105.223 204.312 55.7887 204.873C25.9503 205.212 1.0782 208.302 -26.2721 211.735C-54.6816 215.301 -84.68 217.344 -115.018 218.31C-179.592 220.365 -243.635 217.334 -307.439 214.475C-381.086 211.175 -455.393 208.635 -527.82 203.118" stroke="url(#paint50_linear_0_245)" stroke-miterlimit="10"/>
<path d="M913.001 202.107C842.891 203.279 781.905 212.109 709.887 208.705C652.548 205.994 601.046 196.408 543.817 193.64C486.178 190.866 423.853 196.769 367.534 200.268C313.273 203.644 258.253 207.235 202.733 207.235C152.899 207.235 103.554 203.077 53.7104 204.138C23.8319 204.771 -1.25004 208.04 -28.8102 211.4C-57.0298 214.839 -86.8284 216.666 -116.907 217.388C-181.69 218.943 -244.625 214.943 -308.419 212.163C-381.586 208.974 -455.882 207.615 -527.8 202.029" stroke="url(#paint51_linear_0_245)" stroke-miterlimit="10"/>
<path d="M913.001 201.107C842.362 202.333 781.236 210.842 708.608 207.571C651.25 204.987 599.347 195.67 542.038 193.117C484.52 190.549 422.684 196.411 366.395 199.796C312.434 203.049 257.623 206.317 202.393 205.854C152.2 205.433 101.886 201.899 51.6221 203.454C21.7037 204.382 -3.57814 207.824 -31.3181 211.111C-59.298 214.427 -88.9565 216.039 -118.755 216.517C-183.708 217.565 -245.604 212.616 -309.378 209.911C-382.085 206.827 -456.272 206.656 -527.77 201" stroke="url(#paint52_linear_0_245)" stroke-miterlimit="10"/>
<path d="M913.001 200.107C841.872 201.374 780.476 209.642 707.339 206.507C649.97 204.046 597.668 194.983 540.269 192.658C482.871 190.334 421.535 196.116 365.395 199.385C311.564 202.52 257.014 205.481 202.083 204.553C151.45 203.698 100.277 200.797 49.5932 202.84C19.6149 204.046 -5.84684 207.675 -33.8466 210.886C-61.8465 214.098 -91.1254 215.478 -120.644 215.719C-185.597 216.254 -246.673 210.377 -310.377 207.748C-382.665 204.765 -456.792 205.778 -527.81 200.04" stroke="url(#paint53_linear_0_245)" stroke-miterlimit="10"/>
<path d="M913.001 199.107C841.382 200.437 779.767 208.502 706.11 205.512C648.711 203.172 596.029 194.384 538.551 192.256C481.312 190.137 420.356 195.882 364.316 199.039C310.645 202.061 256.394 204.711 201.734 203.327C150.601 202.032 98.668 199.761 47.5349 202.282C17.6465 203.758 -8.11488 207.577 -36.3145 210.716C-63.9946 213.794 -93.2734 214.978 -122.472 214.988C-187.426 215.013 -247.722 208.236 -311.336 205.677C-383.284 202.783 -457.231 204.977 -527.81 199.147" stroke="url(#paint54_linear_0_245)" stroke-miterlimit="10"/>
<path d="M913.001 198.607C840.903 199.982 779.097 207.457 704.911 204.581C647.482 202.365 594.42 193.814 536.872 191.914C479.693 190.014 419.347 195.714 363.297 198.761C309.736 201.662 255.755 204.014 201.414 202.181C149.731 200.439 97.1289 198.799 45.5262 201.788C15.6477 203.514 -10.3335 207.526 -38.743 210.592C-66.2932 213.562 -95.3222 214.535 -124.251 214.319C-189.105 213.841 -248.772 206.196 -312.296 203.698C-383.834 200.886 -457.591 204.261 -527.84 198.314" stroke="url(#paint55_linear_0_245)" stroke-miterlimit="10"/>
<path d="M913.001 197.607C840.453 199.029 778.418 206.469 703.742 203.72C646.283 201.601 592.822 193.326 535.243 191.607C478.184 189.903 418.327 195.594 362.308 198.526C308.846 201.316 255.135 203.375 201.104 201.101C148.842 198.903 95.5903 197.884 43.6278 201.332C13.7793 203.311 -12.4218 207.514 -41.0811 210.516C-68.4614 213.366 -97.3405 214.151 -126.02 213.718C-190.703 212.745 -249.861 204.271 -313.275 201.826C-384.473 199.081 -458.01 203.628 -527.92 197.564" stroke="url(#paint56_linear_0_245)" stroke-miterlimit="10"/>
<path d="M913.001 197.107C840.053 198.573 777.788 205.563 702.632 202.925C645.144 200.905 591.383 192.88 533.674 191.35C476.715 189.843 417.298 195.524 361.368 198.355C307.977 201.063 254.536 202.811 200.824 200.107C147.952 197.446 94.2212 197.035 41.809 200.93C12.0205 203.147 -14.4304 207.539 -43.2796 210.472C-70.52 213.239 -99.2391 213.813 -127.619 213.173C-192.072 211.719 -250.82 202.463 -314.114 200.05C-385.063 197.355 -458.3 203.068 -527.9 196.857" stroke="url(#paint57_linear_0_245)" stroke-miterlimit="10"/>
<path d="M913.001 196.607C842.787 197.606 777.618 204.655 701.583 202.194C644.045 200.268 589.954 192.481 532.185 191.138C475.316 189.818 416.359 195.499 360.479 198.241C307.138 200.86 253.956 202.317 200.545 199.191C147.133 196.066 92.8722 196.249 40.0503 200.575C10.3318 203.011 -16.3789 207.542 -45.388 210.462C-72.3686 213.182 -101.128 213.524 -129.158 212.679C-193.351 210.779 -251.769 200.775 -314.934 198.393C-385.573 195.73 -458.6 202.599 -527.9 196.221" stroke="url(#paint58_linear_0_245)" stroke-miterlimit="10"/>
<path d="M913.001 196.107C839.194 197.64 776.569 203.954 700.544 201.519C643.025 199.685 588.615 192.133 530.776 190.964C474.037 189.818 415.46 195.518 359.64 198.181C306.328 200.715 253.396 201.896 200.295 198.358C146.194 194.758 91.6132 195.508 38.4115 200.259C8.75291 202.9 -18.1877 207.602 -47.3666 210.481C-74.2373 213.132 -102.847 213.284 -130.587 212.267C-160.855 211.156 -190.364 208.61 -219.423 205.785C-250.78 202.741 -283.047 198.099 -315.713 196.87C-386.112 194.219 -458.89 202.228 -527.91 195.66" stroke="url(#paint59_linear_0_245)" stroke-miterlimit="10"/>
<path d="M913.001 195.607C838.834 197.165 776.099 203.286 699.635 200.933C642.066 199.16 587.366 191.816 529.457 190.822C472.808 189.837 414.65 195.572 358.88 198.169C305.569 200.645 252.847 201.548 200.055 197.611C145.364 193.532 90.4239 194.828 36.8326 199.989C7.3039 202.84 -19.8665 207.685 -49.1954 210.522C-75.9561 213.11 -104.436 213.091 -131.906 211.9C-162.114 210.595 -191.453 207.827 -220.342 204.822C-251.47 201.586 -283.786 196.702 -316.443 195.464C-386.622 192.807 -459.17 201.94 -527.92 195.147" stroke="url(#paint60_linear_0_245)" stroke-miterlimit="10"/>
<path d="M913.001 195.107C838.494 196.691 775.6 202.684 698.805 200.401C641.197 198.685 586.236 191.563 528.278 190.711C471.709 189.878 413.941 195.679 358.211 198.21C304.889 200.626 252.357 201.275 199.875 196.943C144.555 192.392 89.3647 194.197 35.3937 199.755C5.97488 202.783 -21.3954 207.777 -50.8742 210.583C-77.5249 213.116 -105.835 212.939 -133.105 211.593C-163.243 210.104 -192.432 207.128 -221.171 203.958C-252.089 200.547 -284.446 195.448 -317.102 194.191C-387.052 191.499 -459.429 201.744 -527.95 194.707" stroke="url(#paint61_linear_0_245)" stroke-miterlimit="10"/>
<path d="M913.001 194.607C838.185 196.191 775.19 202.162 698.066 199.932C640.387 198.264 585.147 191.338 527.129 190.625C470.62 189.928 413.211 195.816 357.541 198.295C304.2 200.667 251.818 201.076 199.655 196.373C143.765 191.335 88.4354 193.615 34.0846 199.54C4.76571 202.741 -22.7844 207.865 -52.3831 210.646C-78.9439 213.138 -107.154 212.821 -134.164 211.333C-164.262 209.674 -193.291 206.507 -221.901 203.185C-252.649 199.609 -285.025 194.337 -317.722 193.051C-387.531 190.302 -459.729 201.633 -527.95 194.318" stroke="url(#paint62_linear_0_245)" stroke-miterlimit="10"/>
<path d="M912.501 194.107C837.395 195.691 774.84 201.722 697.416 199.527C639.728 197.893 584.238 191.151 526.17 190.549C469.72 189.976 412.691 195.968 357.022 198.412C303.65 200.756 251.368 200.946 199.505 195.879C143.036 190.359 87.6759 193.07 32.9253 199.362C3.7364 202.719 -23.9736 207.96 -53.6822 210.722C-80.1631 213.186 -108.233 212.749 -135.053 211.134C-165.112 209.319 -194.011 205.981 -222.5 202.52C-253.108 198.799 -285.455 193.39 -318.241 192.069C-387.901 189.235 -460.009 201.633 -527.96 193.995" stroke="url(#paint63_linear_0_245)" stroke-miterlimit="10"/>
<path d="M912.501 193.607C837.765 195.191 775.41 201.272 698.435 199.229C637.609 197.618 578.812 190.337 517.436 190.486C464.964 190.613 412.312 196.075 360.479 198.425C305.409 200.921 252.697 200.851 199.365 195.508C140.228 189.599 84.8178 192.706 27.8189 199.733C2.26735 202.881 -22.0751 207.175 -47.8165 210.123C-75.0569 213.243 -104.965 212.939 -132.995 211.206C-164.802 209.243 -195.25 205.506 -225.249 201.706C-255.487 197.861 -287.634 192.449 -320.24 191.183C-389.19 188.519 -460.899 201.668 -527.95 193.738" stroke="url(#paint64_linear_0_245)" stroke-miterlimit="10"/>
<path d="M912.501 193.607C837.555 195.168 775.2 201 698.016 198.954C637.17 197.339 578.102 190.229 516.746 190.467C464.314 190.673 411.932 196.287 360.129 198.64C305.019 201.142 252.317 200.895 199.245 195.204C139.508 188.795 84.3883 192.266 26.9197 199.638C1.48809 202.9 -22.9243 207.232 -48.7357 210.183C-75.9161 213.306 -105.695 212.939 -133.565 211.108C-165.352 209.021 -195.68 205.123 -225.588 201.221C-255.786 197.282 -287.923 191.81 -320.61 190.479C-389.43 187.699 -461.218 201.833 -527.96 193.52" stroke="url(#paint65_linear_0_245)" stroke-miterlimit="10"/>
<path d="M912.501 193.607C837.405 195.143 775.1 200.816 697.696 198.739C636.84 197.104 577.642 190.147 516.207 190.46C463.795 190.727 411.662 196.522 359.879 198.894C304.739 201.427 251.957 201.025 199.225 194.992C138.909 188.095 84.2284 191.857 26.2702 199.54C0.898476 202.9 -23.5739 207.276 -49.4052 210.263C-76.5657 213.401 -106.084 213.005 -133.934 211.089C-198.278 206.656 -255.926 192.775 -320.889 189.976C-389.59 187.015 -461.568 202.102 -527.96 193.371" stroke="url(#paint66_linear_0_245)" stroke-miterlimit="10"/>
<path d="M912.501 193.607C837.285 195.111 775 200.718 697.506 198.59C636.64 196.915 577.243 190.094 515.837 190.458C463.415 190.774 411.512 196.772 359.75 199.186C304.589 201.757 251.628 201.238 199.195 194.879C138.349 187.497 84.2783 191.477 25.7705 199.471C0.608616 202.9 -23.9237 207.445 -49.815 210.314C-77.3152 213.357 -105.945 213.11 -134.094 211.109C-198.548 206.523 -255.876 192.63 -321.069 189.628C-389.68 186.461 -461.968 202.47 -527.92 193.276" stroke="url(#paint67_linear_0_245)" stroke-miterlimit="10"/>
<path d="M912.501 193.607C837.205 195.067 775.03 200.708 697.456 198.501C636.59 196.769 577.113 190.061 515.587 190.454C463.155 190.79 411.452 197.041 359.7 199.511C304.539 202.143 251.298 201.538 199.175 194.859C137.86 186.996 84.5481 191.119 25.4808 199.416C-28.4803 206.991 -72.9383 215.615 -134.044 211.175C-198.668 206.478 -255.726 192.703 -321.149 189.46C-389.68 186.062 -462.347 202.935 -528 193.26" stroke="url(#paint68_linear_0_245)" stroke-miterlimit="10"/>
</mask>
<g mask="url(#mask1_0_245)">
<rect x="-526.999" y="172" width="1440" height="178" fill="url(#paint69_linear_0_245)" fill-opacity="0.8"/>
</g>
</g>
<text id="version" fill="white" xml:space="preserve" style="white-space: pre" font-family="Inter" font-size="48" font-weight="bold" letter-spacing="0em"><tspan x="418.117" y="292.455">2022.2.1</tspan></text>
<text fill="white" xml:space="preserve" style="white-space: pre" font-family="Inter" font-size="48" font-weight="200" letter-spacing="0em"><tspan x="207.18" y="292.455">Insomnia</tspan></text>
<text fill="white" xml:space="preserve" style="white-space: pre" font-family="Inter" font-size="48" font-weight="200" letter-spacing="0em"><tspan x="404.617" y="292.455"> </tspan></text>
</g>
<defs>
<filter id="filter0_d_0_245" x="-534.999" y="176.5" width="1456" height="173.108" filterUnits="userSpaceOnUse" color-interpolation-filters="sRGB">
<feFlood flood-opacity="0" result="BackgroundImageFix"/>
<feColorMatrix in="SourceAlpha" type="matrix" values="0 0 0 0 0 0 0 0 0 0 0 0 0 0 0 0 0 0 127 0" result="hardAlpha"/>
<feOffset dy="-4"/>
<feGaussianBlur stdDeviation="4"/>
<feColorMatrix type="matrix" values="0 0 0 0 0 0 0 0 0 0 0 0 0 0 0 0 0 0 0.25 0"/>
<feBlend mode="normal" in2="BackgroundImageFix" result="effect1_dropShadow_0_245"/>
<feBlend mode="normal" in="SourceGraphic" in2="effect1_dropShadow_0_245" result="shape"/>
</filter>
<linearGradient id="paint0_linear_0_245" x1="413.335" y1="0" x2="413.335" y2="350" gradientUnits="userSpaceOnUse">
<stop stop-color="#150326"/>
<stop offset="1"/>
</linearGradient>
<linearGradient id="paint1_linear_0_245" x1="-1.0358e+06" y1="546.447" x2="-1.0358e+06" y2="398.007" gradientUnits="userSpaceOnUse">
<stop stop-color="#5E01D3"/>
<stop offset="1" stop-color="#2C66B8"/>
</linearGradient>
<linearGradient id="paint2_linear_0_245" x1="-1.03649e+06" y1="711.513" x2="-1.03649e+06" y2="439.173" gradientUnits="userSpaceOnUse">
<stop stop-color="#5E01D3"/>
<stop offset="1" stop-color="#2C66B8"/>
</linearGradient>
<linearGradient id="paint3_linear_0_245" x1="-1.03649e+06" y1="957.895" x2="-1.03649e+06" y2="501.425" gradientUnits="userSpaceOnUse">
<stop stop-color="#5E01D3"/>
<stop offset="1" stop-color="#2C66B8"/>
</linearGradient>
<linearGradient id="paint4_linear_0_245" x1="-1.03649e+06" y1="1367.05" x2="-1.03649e+06" y2="606.944" gradientUnits="userSpaceOnUse">
<stop stop-color="#5E01D3"/>
<stop offset="1" stop-color="#2C66B8"/>
</linearGradient>
<linearGradient id="paint5_linear_0_245" x1="-1.03649e+06" y1="1817.04" x2="-1.03649e+06" y2="723.587" gradientUnits="userSpaceOnUse">
<stop stop-color="#5E01D3"/>
<stop offset="1" stop-color="#2C66B8"/>
</linearGradient>
<linearGradient id="paint6_linear_0_245" x1="-1.03649e+06" y1="2364.73" x2="-1.03649e+06" y2="866.194" gradientUnits="userSpaceOnUse">
<stop stop-color="#3A0879"/>
<stop offset="1" stop-color="#2C66B8"/>
</linearGradient>
<linearGradient id="paint7_linear_0_245" x1="-1.03648e+06" y1="2940.6" x2="-1.03648e+06" y2="1016.4" gradientUnits="userSpaceOnUse">
<stop stop-color="#3A0879"/>
<stop offset="1" stop-color="#2C66B8"/>
</linearGradient>
<linearGradient id="paint8_linear_0_245" x1="-1.0365e+06" y1="3518.2" x2="-1.0365e+06" y2="1167.14" gradientUnits="userSpaceOnUse">
<stop stop-color="#5E01D3"/>
<stop offset="1" stop-color="#2C66B8"/>
</linearGradient>
<linearGradient id="paint9_linear_0_245" x1="-1.03647e+06" y1="4067.24" x2="-1.03647e+06" y2="1310.34" gradientUnits="userSpaceOnUse">
<stop stop-color="#5E01D3"/>
<stop offset="1" stop-color="#2C66B8"/>
</linearGradient>
<linearGradient id="paint10_linear_0_245" x1="-1.03649e+06" y1="4611.88" x2="-1.03649e+06" y2="1452.25" gradientUnits="userSpaceOnUse">
<stop stop-color="#5E01D3"/>
<stop offset="1" stop-color="#2C66B8"/>
</linearGradient>
<linearGradient id="paint11_linear_0_245" x1="-1.03649e+06" y1="5030.15" x2="-1.03649e+06" y2="1560.73" gradientUnits="userSpaceOnUse">
<stop stop-color="#5E01D3"/>
<stop offset="1" stop-color="#2C66B8"/>
</linearGradient>
<linearGradient id="paint12_linear_0_245" x1="-1.03649e+06" y1="5339.95" x2="-1.03649e+06" y2="1640.38" gradientUnits="userSpaceOnUse">
<stop stop-color="#5E01D3"/>
<stop offset="1" stop-color="#2C66B8"/>
</linearGradient>
<linearGradient id="paint13_linear_0_245" x1="-1.03652e+06" y1="5505.19" x2="-1.03652e+06" y2="1681.58" gradientUnits="userSpaceOnUse">
<stop stop-color="#5E01D3"/>
<stop offset="1" stop-color="#2C66B8"/>
</linearGradient>
<linearGradient id="paint14_linear_0_245" x1="-1.03649e+06" y1="5578.36" x2="-1.03649e+06" y2="1698.11" gradientUnits="userSpaceOnUse">
<stop stop-color="#5E01D3"/>
<stop offset="1" stop-color="#2C66B8"/>
</linearGradient>
<linearGradient id="paint15_linear_0_245" x1="-1.03647e+06" y1="5652.54" x2="-1.03647e+06" y2="1714.91" gradientUnits="userSpaceOnUse">
<stop stop-color="#5E01D3"/>
<stop offset="1" stop-color="#2C66B8"/>
</linearGradient>
<linearGradient id="paint16_linear_0_245" x1="-1.03648e+06" y1="5694.37" x2="-1.03648e+06" y2="1723.31" gradientUnits="userSpaceOnUse">
<stop stop-color="#5E01D3"/>
<stop offset="1" stop-color="#2C66B8"/>
</linearGradient>
<linearGradient id="paint17_linear_0_245" x1="-1.03652e+06" y1="5706.18" x2="-1.03652e+06" y2="1723.88" gradientUnits="userSpaceOnUse">
<stop stop-color="#5E01D3"/>
<stop offset="1" stop-color="#2C66B8"/>
</linearGradient>
<linearGradient id="paint18_linear_0_245" x1="-1.03649e+06" y1="5691.69" x2="-1.03649e+06" y2="1717.63" gradientUnits="userSpaceOnUse">
<stop stop-color="#5E01D3"/>
<stop offset="1" stop-color="#2C66B8"/>
</linearGradient>
<linearGradient id="paint19_linear_0_245" x1="-1.03649e+06" y1="5653.37" x2="-1.03649e+06" y2="1705.19" gradientUnits="userSpaceOnUse">
<stop stop-color="#5E01D3"/>
<stop offset="1" stop-color="#2C66B8"/>
</linearGradient>
<linearGradient id="paint20_linear_0_245" x1="-1.0365e+06" y1="5565.83" x2="-1.0365e+06" y2="1679.91" gradientUnits="userSpaceOnUse">
<stop stop-color="#5E01D3"/>
<stop offset="1" stop-color="#2C66B8"/>
</linearGradient>
<linearGradient id="paint21_linear_0_245" x1="-1.03651e+06" y1="5507.17" x2="-1.03651e+06" y2="1662.27" gradientUnits="userSpaceOnUse">
<stop stop-color="#5E01D3"/>
<stop offset="1" stop-color="#2C66B8"/>
</linearGradient>
<linearGradient id="paint22_linear_0_245" x1="-1.03646e+06" y1="5436.35" x2="-1.03646e+06" y2="1641.49" gradientUnits="userSpaceOnUse">
<stop stop-color="#5E01D3"/>
<stop offset="1" stop-color="#2C66B8"/>
</linearGradient>
<linearGradient id="paint23_linear_0_245" x1="-1.03649e+06" y1="5361.18" x2="-1.03649e+06" y2="1619.64" gradientUnits="userSpaceOnUse">
<stop stop-color="#5E01D3"/>
<stop offset="1" stop-color="#2C66B8"/>
</linearGradient>
<linearGradient id="paint24_linear_0_245" x1="-1.03652e+06" y1="5281.7" x2="-1.03652e+06" y2="1596.71" gradientUnits="userSpaceOnUse">
<stop stop-color="#5E01D3"/>
<stop offset="1" stop-color="#2C66B8"/>
</linearGradient>
<linearGradient id="paint25_linear_0_245" x1="-1.03648e+06" y1="5201.17" x2="-1.03648e+06" y2="1573.53" gradientUnits="userSpaceOnUse">
<stop stop-color="#5E01D3"/>
<stop offset="1" stop-color="#2C66B8"/>
</linearGradient>
<linearGradient id="paint26_linear_0_245" x1="-1.03649e+06" y1="5096.33" x2="-1.03649e+06" y2="1544.01" gradientUnits="userSpaceOnUse">
<stop stop-color="#5E01D3"/>
<stop offset="1" stop-color="#2C66B8"/>
</linearGradient>
<linearGradient id="paint27_linear_0_245" x1="-1.03646e+06" y1="5021.29" x2="-1.03646e+06" y2="1522.36" gradientUnits="userSpaceOnUse">
<stop stop-color="#5E01D3"/>
<stop offset="1" stop-color="#2C66B8"/>
</linearGradient>
<linearGradient id="paint28_linear_0_245" x1="-1.03647e+06" y1="4954.42" x2="-1.03647e+06" y2="1502.88" gradientUnits="userSpaceOnUse">
<stop stop-color="#5E01D3"/>
<stop offset="1" stop-color="#2C66B8"/>
</linearGradient>
<linearGradient id="paint29_linear_0_245" x1="-1.03646e+06" y1="4901.86" x2="-1.03646e+06" y2="1487.2" gradientUnits="userSpaceOnUse">
<stop stop-color="#5E01D3"/>
<stop offset="1" stop-color="#2C66B8"/>
</linearGradient>
<linearGradient id="paint30_linear_0_245" x1="-1.03652e+06" y1="4856.52" x2="-1.03652e+06" y2="1473.39" gradientUnits="userSpaceOnUse">
<stop stop-color="#5E01D3"/>
<stop offset="1" stop-color="#2C66B8"/>
</linearGradient>
<linearGradient id="paint31_linear_0_245" x1="-1.03649e+06" y1="4834.03" x2="-1.03649e+06" y2="1465.62" gradientUnits="userSpaceOnUse">
<stop stop-color="#5E01D3"/>
<stop offset="1" stop-color="#2C66B8"/>
</linearGradient>
<linearGradient id="paint32_linear_0_245" x1="-1.03649e+06" y1="4823.24" x2="-1.03649e+06" y2="1460.92" gradientUnits="userSpaceOnUse">
<stop stop-color="#5E01D3"/>
<stop offset="1" stop-color="#2C66B8"/>
</linearGradient>
<linearGradient id="paint33_linear_0_245" x1="-1.03652e+06" y1="4793.59" x2="-1.03652e+06" y2="1451.26" gradientUnits="userSpaceOnUse">
<stop stop-color="#5E01D3"/>
<stop offset="1" stop-color="#2C66B8"/>
</linearGradient>
<linearGradient id="paint34_linear_0_245" x1="-1.03649e+06" y1="4748.92" x2="-1.03649e+06" y2="1437.57" gradientUnits="userSpaceOnUse">
<stop stop-color="#5E01D3"/>
<stop offset="1" stop-color="#2C66B8"/>
</linearGradient>
<linearGradient id="paint35_linear_0_245" x1="-1.03652e+06" y1="4683.82" x2="-1.03652e+06" y2="1418.5" gradientUnits="userSpaceOnUse">
<stop stop-color="#5E01D3"/>
<stop offset="1" stop-color="#2C66B8"/>
</linearGradient>
<linearGradient id="paint36_linear_0_245" x1="-1.03649e+06" y1="4605.84" x2="-1.03649e+06" y2="1396.06" gradientUnits="userSpaceOnUse">
<stop stop-color="#5E01D3"/>
<stop offset="1" stop-color="#2C66B8"/>
</linearGradient>
<linearGradient id="paint37_linear_0_245" x1="-1.03652e+06" y1="4512.62" x2="-1.03652e+06" y2="1369.58" gradientUnits="userSpaceOnUse">
<stop stop-color="#5E01D3"/>
<stop offset="1" stop-color="#2C66B8"/>
</linearGradient>
<linearGradient id="paint38_linear_0_245" x1="-1.03649e+06" y1="4408.69" x2="-1.03649e+06" y2="1340.31" gradientUnits="userSpaceOnUse">
<stop stop-color="#5E01D3"/>
<stop offset="1" stop-color="#2C66B8"/>
</linearGradient>
<linearGradient id="paint39_linear_0_245" x1="-1.03649e+06" y1="4291.01" x2="-1.03649e+06" y2="1307.4" gradientUnits="userSpaceOnUse">
<stop stop-color="#5E01D3"/>
<stop offset="1" stop-color="#2C66B8"/>
</linearGradient>
<linearGradient id="paint40_linear_0_245" x1="-1.03648e+06" y1="4160.4" x2="-1.03648e+06" y2="1271.09" gradientUnits="userSpaceOnUse">
<stop stop-color="#5E01D3"/>
<stop offset="1" stop-color="#2C66B8"/>
</linearGradient>
<linearGradient id="paint41_linear_0_245" x1="-1.03649e+06" y1="4025.68" x2="-1.03649e+06" y2="1233.75" gradientUnits="userSpaceOnUse">
<stop stop-color="#5E01D3"/>
<stop offset="1" stop-color="#2C66B8"/>
</linearGradient>
<linearGradient id="paint42_linear_0_245" x1="-1.03649e+06" y1="3880.08" x2="-1.03649e+06" y2="1193.54" gradientUnits="userSpaceOnUse">
<stop stop-color="#5E01D3"/>
<stop offset="1" stop-color="#2C66B8"/>
</linearGradient>
<linearGradient id="paint43_linear_0_245" x1="-1.03649e+06" y1="3733.36" x2="-1.03649e+06" y2="1153.11" gradientUnits="userSpaceOnUse">
<stop stop-color="#5E01D3"/>
<stop offset="1" stop-color="#2C66B8"/>
</linearGradient>
<linearGradient id="paint44_linear_0_245" x1="-1.03649e+06" y1="3578.97" x2="-1.03649e+06" y2="1110.68" gradientUnits="userSpaceOnUse">
<stop stop-color="#5E01D3"/>
<stop offset="1" stop-color="#2C66B8"/>
</linearGradient>
<linearGradient id="paint45_linear_0_245" x1="-1.03649e+06" y1="3425.29" x2="-1.03649e+06" y2="1068.5" gradientUnits="userSpaceOnUse">
<stop stop-color="#5E01D3"/>
<stop offset="1" stop-color="#2C66B8"/>
</linearGradient>
<linearGradient id="paint46_linear_0_245" x1="-1.03644e+06" y1="3274.83" x2="-1.03644e+06" y2="1027.26" gradientUnits="userSpaceOnUse">
<stop stop-color="#5E01D3"/>
<stop offset="1" stop-color="#2C66B8"/>
</linearGradient>
<linearGradient id="paint47_linear_0_245" x1="-1.03653e+06" y1="3113.69" x2="-1.03653e+06" y2="983.201" gradientUnits="userSpaceOnUse">
<stop stop-color="#5E01D3"/>
<stop offset="1" stop-color="#2C66B8"/>
</linearGradient>
<linearGradient id="paint48_linear_0_245" x1="-1.03649e+06" y1="3014.34" x2="-1.03649e+06" y2="955.863" gradientUnits="userSpaceOnUse">
<stop stop-color="#5E01D3"/>
<stop offset="1" stop-color="#2C66B8"/>
</linearGradient>
<linearGradient id="paint49_linear_0_245" x1="-1.03649e+06" y1="2891.92" x2="-1.03649e+06" y2="922.359" gradientUnits="userSpaceOnUse">
<stop stop-color="#5E01D3"/>
<stop offset="1" stop-color="#2C66B8"/>
</linearGradient>
<linearGradient id="paint50_linear_0_245" x1="-1.03652e+06" y1="2794.6" x2="-1.03652e+06" y2="895.701" gradientUnits="userSpaceOnUse">
<stop stop-color="#5E01D3"/>
<stop offset="1" stop-color="#2C66B8"/>
</linearGradient>
<linearGradient id="paint51_linear_0_245" x1="-1.03649e+06" y1="2715.88" x2="-1.03649e+06" y2="874.097" gradientUnits="userSpaceOnUse">
<stop stop-color="#5E01D3"/>
<stop offset="1" stop-color="#2C66B8"/>
</linearGradient>
<linearGradient id="paint52_linear_0_245" x1="-1.03646e+06" y1="2650.43" x2="-1.03646e+06" y2="856.107" gradientUnits="userSpaceOnUse">
<stop stop-color="#5E01D3"/>
<stop offset="1" stop-color="#2C66B8"/>
</linearGradient>
<linearGradient id="paint53_linear_0_245" x1="-1.03647e+06" y1="2594.75" x2="-1.03647e+06" y2="840.811" gradientUnits="userSpaceOnUse">
<stop stop-color="#5E01D3"/>
<stop offset="1" stop-color="#2C66B8"/>
</linearGradient>
<linearGradient id="paint54_linear_0_245" x1="-1.03647e+06" y1="2549.47" x2="-1.03647e+06" y2="828.347" gradientUnits="userSpaceOnUse">
<stop stop-color="#5E01D3"/>
<stop offset="1" stop-color="#2C66B8"/>
</linearGradient>
<linearGradient id="paint55_linear_0_245" x1="-1.03648e+06" y1="2550.88" x2="-1.03648e+06" y2="828.249" gradientUnits="userSpaceOnUse">
<stop stop-color="#5E01D3"/>
<stop offset="1" stop-color="#2C66B8"/>
</linearGradient>
<linearGradient id="paint56_linear_0_245" x1="-1.03652e+06" y1="2612.57" x2="-1.03652e+06" y2="844.073" gradientUnits="userSpaceOnUse">
<stop stop-color="#5E01D3"/>
<stop offset="1" stop-color="#2C66B8"/>
</linearGradient>
<linearGradient id="paint57_linear_0_245" x1="-1.0365e+06" y1="2676.48" x2="-1.0365e+06" y2="860.557" gradientUnits="userSpaceOnUse">
<stop stop-color="#5E01D3"/>
<stop offset="1" stop-color="#2C66B8"/>
</linearGradient>
<linearGradient id="paint58_linear_0_245" x1="-1.03649e+06" y1="2741.52" x2="-1.03649e+06" y2="877.408" gradientUnits="userSpaceOnUse">
<stop stop-color="#5E01D3"/>
<stop offset="1" stop-color="#2C66B8"/>
</linearGradient>
<linearGradient id="paint59_linear_0_245" x1="-1.03646e+06" y1="2808.43" x2="-1.03646e+06" y2="894.811" gradientUnits="userSpaceOnUse">
<stop stop-color="#5E01D3"/>
<stop offset="1" stop-color="#2C66B8"/>
</linearGradient>
<linearGradient id="paint60_linear_0_245" x1="-1.03647e+06" y1="2870.44" x2="-1.03647e+06" y2="910.976" gradientUnits="userSpaceOnUse">
<stop stop-color="#5E01D3"/>
<stop offset="1" stop-color="#2C66B8"/>
</linearGradient>
<linearGradient id="paint61_linear_0_245" x1="-1.03649e+06" y1="2931.08" x2="-1.03649e+06" y2="926.823" gradientUnits="userSpaceOnUse">
<stop stop-color="#5E01D3"/>
<stop offset="1" stop-color="#2C66B8"/>
</linearGradient>
<linearGradient id="paint62_linear_0_245" x1="-1.03649e+06" y1="2987.01" x2="-1.03649e+06" y2="941.463" gradientUnits="userSpaceOnUse">
<stop stop-color="#5E01D3"/>
<stop offset="1" stop-color="#2C66B8"/>
</linearGradient>
<linearGradient id="paint63_linear_0_245" x1="-1.03649e+06" y1="3038.34" x2="-1.03649e+06" y2="954.928" gradientUnits="userSpaceOnUse">
<stop stop-color="#5E01D3"/>
<stop offset="1" stop-color="#2C66B8"/>
</linearGradient>
<linearGradient id="paint64_linear_0_245" x1="-1.03649e+06" y1="3087.55" x2="-1.03649e+06" y2="967.887" gradientUnits="userSpaceOnUse">
<stop stop-color="#5E01D3"/>
<stop offset="1" stop-color="#2C66B8"/>
</linearGradient>
<linearGradient id="paint65_linear_0_245" x1="-1.03649e+06" y1="3124.58" x2="-1.03649e+06" y2="977.626" gradientUnits="userSpaceOnUse">
<stop stop-color="#5E01D3"/>
<stop offset="1" stop-color="#2C66B8"/>
</linearGradient>
<linearGradient id="paint66_linear_0_245" x1="-1.03649e+06" y1="3156.76" x2="-1.03649e+06" y2="986.129" gradientUnits="userSpaceOnUse">
<stop stop-color="#5E01D3"/>
<stop offset="1" stop-color="#2C66B8"/>
</linearGradient>
<linearGradient id="paint67_linear_0_245" x1="-1.03647e+06" y1="3176.42" x2="-1.03647e+06" y2="991.317" gradientUnits="userSpaceOnUse">
<stop stop-color="#5E01D3"/>
<stop offset="1" stop-color="#2C66B8"/>
</linearGradient>
<linearGradient id="paint68_linear_0_245" x1="-1.03652e+06" y1="3160.04" x2="-1.03652e+06" y2="986.853" gradientUnits="userSpaceOnUse">
<stop stop-color="#5E01D3"/>
<stop offset="1" stop-color="#2C66B8"/>
</linearGradient>
<linearGradient id="paint69_linear_0_245" x1="67.0014" y1="345" x2="66.0014" y2="185" gradientUnits="userSpaceOnUse">
<stop stop-color="#5000AA"/>
<stop offset="1" stop-color="#120133"/>
</linearGradient>
<clipPath id="clip0_0_245">
<rect width="826.67" height="350" fill="white"/>
</clipPath>
</defs>
</svg>
