<svg width="12px" height="12px" viewBox="0 0 12 12" version="1.1" xmlns="http://www.w3.org/2000/svg">
    <path fill="#000000" d="M5.999,0c-3.312,0 -5.999,2.686 -5.999,6c0,2.651 1.719,4.9 4.103,5.693c0.3,0.055 0.41,-0.13 0.41,-0.289c0,-0.142 -0.005,-0.52 -0.008,-1.02c-1.669,0.362 -2.021,-0.805 -2.021,-0.805c-0.273,-0.693 -0.667,-0.877 -0.667,-0.877c-0.544,-0.372 0.042,-0.365 0.042,-0.365c0.602,0.042 0.919,0.618 0.919,0.618c0.535,0.917 1.404,0.652 1.746,0.499c0.054,-0.388 0.209,-0.652 0.381,-0.802c-1.333,-0.152 -2.733,-0.666 -2.733,-2.966c0,-0.655 0.234,-1.19 0.617,-1.61c-0.061,-0.151 -0.267,-0.762 0.059,-1.588c0,0 0.504,-0.161 1.65,0.616c0.479,-0.134 0.992,-0.2 1.502,-0.203c0.51,0.003 1.023,0.069 1.502,0.203c1.146,-0.777 1.649,-0.616 1.649,-0.616c0.327,0.826 0.121,1.437 0.06,1.588c0.384,0.42 0.616,0.955 0.616,1.61c0,2.305 -1.403,2.813 -2.739,2.961c0.215,0.185 0.407,0.551 0.407,1.111c0,0.802 -0.007,1.449 -0.007,1.646c0,0.161 0.108,0.347 0.412,0.289c2.382,-0.795 4.1,-3.043 4.1,-5.693c0,-3.314 -2.687,-6 -6.001,-6"/>
</svg>
