<svg width="14" height="14" viewBox="0 0 14 14" fill="none" xmlns="http://www.w3.org/2000/svg">
<rect width="14" height="14" fill="white" fill-opacity="0"/>
<path fill-rule="evenodd" clip-rule="evenodd" d="M7 0C7.42954 0 7.83694 0.0147603 8.22283 0.0449149C8.27534 0.0490179 8.66367 0.157438 8.77771 0.408203C8.88919 0.653338 8.72755 1.04033 8.68119 1.09672C8.25547 1.61448 8 2.27741 8 3C8 4.65685 9.34315 6 11 6C11.7589 6 12.4519 5.71823 12.9803 5.25361C13.2954 4.97649 13.9269 5.32862 13.9674 5.94898C13.9893 6.28346 14 6.63368 14 7C14 12 12 14 7 14C2 14 0 12 0 7C0 2 2 0 7 0ZM6.756 1.501L6.25078 1.51594C2.74719 1.67358 1.55308 3.02701 1.50174 6.74296L1.5 7C1.5 11.1716 2.82843 12.5 7 12.5C10.9108 12.5 12.3228 11.3324 12.4841 7.74922L12.498 7.243C12.0876 7.38799 11.6611 7.47317 11.2211 7.49462L11 7.5C8.51472 7.5 6.5 5.48528 6.5 3C6.5 2.56797 6.56148 2.14709 6.67735 1.74704L6.756 1.501ZM8 10C8 10.5523 7.55228 11 7 11C6.44772 11 6 10.5523 6 10C6 9.44771 6.44772 9 7 9C7.55228 9 8 9.44771 8 10ZM4 8C4.55228 8 5 7.55228 5 7C5 6.44772 4.55228 6 4 6C3.44772 6 3 6.44772 3 7C3 7.55228 3.44772 8 4 8ZM4.5 4C4.77614 4 5 3.77614 5 3.5C5 3.22386 4.77614 3 4.5 3C4.22386 3 4 3.22386 4 3.5C4 3.77614 4.22386 4 4.5 4ZM10.5 10C10.7761 10 11 9.77614 11 9.5C11 9.22386 10.7761 9 10.5 9C10.2239 9 10 9.22386 10 9.5C10 9.77614 10.2239 10 10.5 10Z" fill="black"/>
</svg>
