<svg width="14" height="14" viewBox="0 0 14 14" fill="none" xmlns="http://www.w3.org/2000/svg">
<rect width="14" height="14" fill="white" fill-opacity="0"/>
<path d="M12.3349 5.78135C12.3316 5.76355 12.3265 5.74611 12.3197 5.72931L11.057 1.84235C10.988 1.63664 10.7946 1.49855 10.5776 1.50002C10.3611 1.49871 10.1691 1.63868 10.104 1.84518L8.90036 5.54913H5.10154L3.89615 1.84518C3.83131 1.63943 3.64034 1.49964 3.42462 1.50002H3.42179C3.20464 1.50006 3.01199 1.63934 2.94388 1.84553L1.68009 5.7371C1.68009 5.74064 1.67725 5.74347 1.67619 5.74701L1.03544 7.71563C0.938848 8.01184 1.04422 8.33654 1.29634 8.51958L6.83227 12.5421C6.93225 12.6145 7.06759 12.6138 7.1668 12.5404L12.7038 8.51958C12.956 8.33647 13.0613 8.01151 12.9643 7.71528L12.3349 5.78135Z" fill="black"/>
</svg>
