<svg width="12px" height="12px" viewBox="0 0 12 12" xmlns="http://www.w3.org/2000/svg">
    <path fill-rule="evenodd" clip-rule="evenodd" d="M5.62129 7.5L8.62135 10.5001L10.5 10.5001V9.5H9.5V8.5H8.5V7.5H7.5V3C7.5 2.17157 6.82843 1.5 6 1.5H3C2.17157 1.5 1.5 2.17157 1.5 3V6C1.5 6.82843 2.17157 7.5 3 7.5H5.62129ZM12 8.00021L12 11L12 11C11.9999 11.5523 11.5523 12 11 12L10.9998 12.0002L8 12L4.99997 9H3C1.34315 9 0 7.65685 0 6V3C0 1.34315 1.34315 0 3 0H6C7.65685 0 9 1.34315 9 3V6H9.99988L10 7H10.9998L11 8L12 8.00021ZM2.5 3.5C2.5 4.05228 2.94772 4.5 3.5 4.5C4.05228 4.5 4.5 4.05228 4.5 3.5C4.5 2.94772 4.05228 2.5 3.5 2.5C2.94772 2.5 2.5 2.94772 2.5 3.5Z" fill="#000000" />
</svg>