<svg width="14" height="14" viewBox="0 0 14 14" fill="none" xmlns="http://www.w3.org/2000/svg">
<rect width="14" height="14" fill="white" fill-opacity="0"/>
<path fill-rule="evenodd" clip-rule="evenodd" d="M7 0C10.866 0 14 3.13401 14 7C14 10.866 10.866 14 7 14C3.13401 14 0 10.866 0 7C0 3.13401 3.13401 0 7 0ZM1.5 7C1.5 10.0376 3.96243 12.5 7 12.5C8.24832 12.5 9.39951 12.0841 10.3226 11.3834L2.61664 3.67743C1.91588 4.60049 1.5 5.75168 1.5 7ZM3.67743 2.61664C4.60049 1.91588 5.75168 1.5 7 1.5C10.0376 1.5 12.5 3.96243 12.5 7C12.5 8.24832 12.0841 9.39951 11.3834 10.3226L3.67743 2.61664Z" fill="black"/>
</svg>
