<svg viewBox="0 0 16 12">
<path d="M7.80113 3.19385L3.0002 7.14798V11.4156C3.0002 11.5261 3.04409 11.6321 3.12223 11.7102C3.20036 11.7884 3.30633 11.8323 3.41683 11.8323L6.33484 11.8247C6.44497 11.8242 6.55041 11.78 6.6281 11.7019C6.70578 11.6239 6.74939 11.5182 6.74939 11.4081V8.91581C6.74939 8.80531 6.79328 8.69934 6.87142 8.62121C6.94955 8.54307 7.05552 8.49918 7.16602 8.49918H8.83256C8.94306 8.49918 9.04903 8.54307 9.12717 8.62121C9.2053 8.69934 9.2492 8.80531 9.2492 8.91581V11.4062C9.24902 11.4611 9.25967 11.5154 9.28053 11.5661C9.3014 11.6168 9.33206 11.6629 9.37076 11.7017C9.40947 11.7405 9.45546 11.7713 9.50609 11.7923C9.55672 11.8134 9.61101 11.8242 9.66583 11.8242L12.5828 11.8323C12.6933 11.8323 12.7993 11.7884 12.8774 11.7102C12.9555 11.6321 12.9994 11.5261 12.9994 11.4156V7.14511L8.19954 3.19385C8.14311 3.14837 8.07281 3.12357 8.00033 3.12357C7.92785 3.12357 7.85756 3.14837 7.80113 3.19385ZM15.3847 5.88141L13.2077 4.08701V0.480262C13.2077 0.397388 13.1748 0.317908 13.1162 0.259308C13.0576 0.200707 12.9781 0.167786 12.8953 0.167786H11.437C11.3542 0.167786 11.2747 0.200707 11.2161 0.259308C11.1575 0.317908 11.1246 0.397388 11.1246 0.480262V2.371L8.79324 0.45292C8.56951 0.268814 8.28877 0.168154 7.99903 0.168154C7.70929 0.168154 7.42855 0.268814 7.20482 0.45292L0.613402 5.88141C0.581761 5.90756 0.555583 5.93969 0.536363 5.97597C0.517144 6.01224 0.50526 6.05194 0.501391 6.09281C0.497522 6.13368 0.501743 6.17491 0.513814 6.21414C0.525884 6.25338 0.545568 6.28985 0.571739 6.32148L1.23575 7.12871C1.26185 7.16044 1.29395 7.18672 1.33022 7.20604C1.36649 7.22535 1.40621 7.23732 1.44711 7.24126C1.48801 7.2452 1.52929 7.24104 1.56858 7.22901C1.60787 7.21698 1.6444 7.19732 1.67608 7.17115L7.80113 2.12623C7.85756 2.08074 7.92785 2.05594 8.00033 2.05594C8.07281 2.05594 8.14311 2.08074 8.19954 2.12623L14.3248 7.17115C14.3565 7.19732 14.3929 7.21701 14.4322 7.22908C14.4714 7.24115 14.5126 7.24537 14.5535 7.2415C14.5944 7.23763 14.6341 7.22575 14.6704 7.20653C14.7066 7.18731 14.7388 7.16113 14.7649 7.12949L15.4289 6.32226C15.4551 6.29045 15.4747 6.25379 15.4866 6.21438C15.4985 6.17498 15.5026 6.1336 15.4984 6.09263C15.4943 6.05166 15.4822 6.01191 15.4626 5.97567C15.4431 5.93942 15.4166 5.90738 15.3847 5.88141Z"/>
</svg>
