<svg width="14" height="3" viewBox="0 0 14 3" fill="none" xmlns="http://www.w3.org/2000/svg">
    <path fill-rule="evenodd" clip-rule="evenodd" d="M1.5 3C2.32843 3 3 2.32843 3 1.5C3 0.671573 2.32843 0 1.5 0C0.671573 0 0 0.671573 0 1.5C0 2.32843 0.671573 3 1.5 3Z" fill="black"/>
    <path fill-rule="evenodd" clip-rule="evenodd" d="M7 3C7.82843 3 8.5 2.32843 8.5 1.5C8.5 0.671573 7.82843 0 7 0C6.17157 0 5.5 0.671573 5.5 1.5C5.5 2.32843 6.17157 3 7 3Z" fill="black"/>
    <path fill-rule="evenodd" clip-rule="evenodd" d="M12.5 3C13.3284 3 14 2.32843 14 1.5C14 0.671573 13.3284 0 12.5 0C11.6716 0 11 0.671573 11 1.5C11 2.32843 11.6716 3 12.5 3Z" fill="black"/>
</svg>
