<svg width="14" height="14" viewBox="0 0 14 14" fill="none" xmlns="http://www.w3.org/2000/svg">
<path fill-rule="evenodd" clip-rule="evenodd" d="M14 7C14 3.13401 10.866 0 7 0C3.13401 0 0 3.13401 0 7C0 10.866 3.13401 14 7 14C10.866 14 14 10.866 14 7ZM1.5 7C1.5 3.96243 3.96243 1.5 7 1.5C10.0376 1.5 12.5 3.96243 12.5 7C12.5 10.0376 10.0376 12.5 7 12.5C3.96243 12.5 1.5 10.0376 1.5 7ZM10.5304 5.53039L9.46973 4.46973L6.00006 7.9394L4.53039 6.46973L3.46973 7.53039L6.00006 10.0607L10.5304 5.53039Z" fill="#12C76C"/>
</svg>
