<svg width="14" height="14" viewBox="0 0 14 14" fill="none" xmlns="http://www.w3.org/2000/svg">
<rect width="14" height="14" fill="white" fill-opacity="0"/>
<path fill-rule="evenodd" clip-rule="evenodd" d="M11 0C12.1046 0 13 0.89543 13 2V12C13 13.1046 12.1046 14 11 14H3C1.89543 14 1 13.1046 1 12V2C1 0.89543 1.89543 0 3 0H11ZM11 1.5H3C2.72386 1.5 2.5 1.72386 2.5 2V12C2.5 12.2761 2.72386 12.5 3 12.5H11C11.2761 12.5 11.5 12.2761 11.5 12V2C11.5 1.72386 11.2761 1.5 11 1.5ZM7 4.5C7.7797 4.5 8.42045 5.09489 8.49313 5.85554L8.5 6V7H9V9C9 9.55229 8.55228 10 8 10H6C5.44772 10 5 9.55229 5 9V7H5.5V6C5.5 5.17157 6.17157 4.5 7 4.5ZM7 5.5C6.75454 5.5 6.55039 5.67688 6.50806 5.91012L6.5 6V7H7.5V6C7.5 5.72386 7.27614 5.5 7 5.5Z" fill="black"/>
</svg>
