<svg width="12" height="12" viewBox="0 0 12 12" xmlns="http://www.w3.org/2000/svg">
    <path fill-rule="evenodd" clip-rule="evenodd" d="M4.5043 0C3.22008 0.0700802 2.31222 0.431767 1.87283 1.23733C1.64192 1.66065 1.59958 2.11416 1.61377 2.50458C1.62747 2.88126 1.69821 3.27006 1.75763 3.59673L1.7621 3.62126C1.8268 3.97713 1.87782 4.26573 1.88721 4.52411C1.89645 4.77823 1.86067 4.92628 1.81033 5.01858C1.74188 5.14407 1.45352 5.48624 0.00541421 5.48709L0 5.48709V6.98709L0.00541658 6.98709C1.47819 6.98788 1.7696 7.31083 1.82563 7.40421C1.86219 7.46514 1.89594 7.57359 1.88732 7.78915C1.8784 8.01198 1.82975 8.26408 1.76456 8.59L1.75942 8.61571C1.70045 8.91029 1.62799 9.27231 1.61388 9.62508C1.59906 9.99546 1.64343 10.4339 1.88813 10.8417C2.39453 11.6857 3.47747 11.9871 5 11.9871L4.56849 10.4768C3.46319 10.421 3.22451 10.1535 3.17437 10.07C3.13781 10.009 3.10406 9.9006 3.11268 9.68504C3.12159 9.46221 3.17025 9.2101 3.23543 8.88418L3.24058 8.85848C3.29954 8.56389 3.37201 8.20188 3.38612 7.8491C3.40093 7.47872 3.35656 7.04029 3.11187 6.63247C3.01632 6.47322 2.90024 6.33328 2.76455 6.21105C2.90802 6.07391 3.02923 5.91641 3.12717 5.73686C3.35807 5.31353 3.40042 4.86002 3.38622 4.4696C3.37252 4.09293 3.30179 3.70412 3.24236 3.37746L3.2379 3.35293C3.1732 2.99705 3.12218 2.70845 3.11278 2.45007C3.10354 2.19596 3.13932 2.04791 3.18967 1.95561C3.2582 1.82996 3.54719 1.48709 5 1.48709L4.5043 0ZM7.49569 0L7 1.48708V1.48709C8.45281 1.48709 8.74179 1.82996 8.81033 1.95561C8.86067 2.04791 8.89645 2.19596 8.88721 2.45007C8.87782 2.70845 8.8268 2.99705 8.7621 3.35293L8.75763 3.37746L8.75763 3.37747C8.6982 3.70413 8.62747 4.09293 8.61378 4.4696C8.59958 4.86002 8.64192 5.31353 8.87283 5.73686C8.97076 5.91641 9.09198 6.07391 9.23545 6.21105C9.09976 6.33329 8.98368 6.47322 8.88813 6.63247C8.64343 7.04029 8.59906 7.47872 8.61388 7.8491C8.62799 8.20187 8.70045 8.56388 8.75942 8.85846L8.75942 8.85848L8.76456 8.88418C8.82975 9.2101 8.8784 9.46221 8.88732 9.68504C8.89594 9.9006 8.86219 10.009 8.82563 10.07C8.77549 10.1535 8.53681 10.421 7.43151 10.4768L7 11.9871C8.52252 11.9871 9.60547 11.6857 10.1119 10.8417C10.3566 10.4339 10.4009 9.99546 10.3861 9.62508C10.372 9.27231 10.2995 8.91029 10.2406 8.61571L10.2354 8.59C10.1702 8.26408 10.1216 8.01198 10.1127 7.78915C10.1041 7.57359 10.1378 7.46514 10.1744 7.40421C10.2305 7.31072 10.5225 6.98709 12 6.98709V5.48709C10.5472 5.48709 10.2582 5.14423 10.1897 5.01858C10.1393 4.92628 10.1035 4.77823 10.1128 4.52411C10.1222 4.26573 10.1732 3.97713 10.2379 3.62126L10.2424 3.59673C10.3018 3.27006 10.3725 2.88126 10.3862 2.50458C10.4004 2.11416 10.3581 1.66065 10.1272 1.23733C9.68778 0.431767 8.77991 0.0700802 7.49569 0Z" fill="#000000"/>
</svg>
