<svg width="14" height="14" viewBox="0 0 14 14" xmlns="http://www.w3.org/2000/svg">
  <path d="M2.05588 7.75C2.17934 8.57081 2.50234 9.32628 2.9739 9.96544L1.87348 11.0659L2.93414 12.1265L4.03456 11.0261C4.67372 11.4977 5.42919 11.8207 6.25 11.9441V13.5H7.75V11.9441C8.57081 11.8207 9.32628 11.4977 9.96544 11.0261L11.0659 12.1265L12.1265 11.0659L11.0261 9.96544C11.4977 9.32628 11.8207 8.57081 11.9441 7.75H13.5V6.25H11.9441C11.8207 5.42919 11.4977 4.67372 11.0261 4.03456L12.1265 2.93414L11.0659 1.87348L9.96544 2.9739C9.32628 2.50234 8.57081 2.17934 7.75 2.05588V0.5H6.25V2.05588C5.42919 2.17934 4.67372 2.50234 4.03456 2.9739L2.93414 1.87348L1.87348 2.93414L2.9739 4.03456C2.50234 4.67372 2.17934 5.42919 2.05588 6.25H0.5V7.75H2.05588ZM4 7C4 5.34315 5.34315 4 7 4C8.65685 4 10 5.34315 10 7C10 8.65685 8.65685 10 7 10C5.34315 10 4 8.65685 4 7Z" />
</svg>
