<svg width="14" height="14" viewBox="0 0 14 14" fill="none" xmlns="http://www.w3.org/2000/svg">
<rect width="14" height="14" fill="white" fill-opacity="0"/>
<path fill-rule="evenodd" clip-rule="evenodd" d="M7.00014 1L8.00014 2.5H12.0001C12.5524 2.5 13.0001 2.94772 13.0001 3.5L13 6H13.4948C13.5187 6 13.5426 6.00168 13.5663 6.00503C13.8119 6.03974 13.991 6.24371 14 6.4806L13.9952 6.57071L13.1906 12.1414C13.1249 12.5962 12.7564 12.943 12.3043 12.9936L12.1897 13H1.81062C1.34616 13 0.946947 12.6882 0.832311 12.2528L0.809707 12.1414L0.00508089 6.57071L0 6.5C0 6.25454 0.178833 6.05039 0.414665 6.00806L0.505536 6H1L1.00014 2C1.00014 1.44772 1.44786 1 2.00014 1H7.00014ZM12.3285 7.5H1.67079L2.24912 11.5H11.7502L12.3285 7.5ZM2.50014 2.5H6.19615L7.19737 4H11.5001L11.5 6H2.5L2.50014 2.5Z" fill="black"/>
</svg>
