<svg width="14" height="14" viewBox="0 0 14 14" fill="none" xmlns="http://www.w3.org/2000/svg">
<rect width="14" height="14" fill="white" fill-opacity="0"/>
<path fill-rule="evenodd" clip-rule="evenodd" d="M12 0C13.1046 0 14 0.89543 14 2V12C14 13.1046 13.1046 14 12 14H2C0.89543 14 0 13.1046 0 12V2C0 0.89543 0.89543 0 2 0H12ZM12.5 4.5H1.5V12C1.5 12.2455 1.67688 12.4496 1.91012 12.4919L2 12.5H12C12.2455 12.5 12.4496 12.3231 12.4919 12.0899L12.5 12V4.5ZM2 1.5H3V3H1.5V2L1.50806 1.91012C1.55039 1.67688 1.75454 1.5 2 1.5ZM6 1.5H4.5V3H6V1.5ZM7.5 1.5H12L12.0899 1.50806C12.3231 1.55039 12.5 1.75454 12.5 2V3H7.5V1.5Z" fill="black"/>
</svg>
