<svg viewBox="0 0 111 111">
    <path d="M110.081 62.5149C109.979 66.2312 106.836 69.1459 103.119 69.1459H91.3204V72.5573C91.3204 77.2191 90.2795 81.6369 88.4207 85.5944L101.262 98.436C103.927 101.101 103.927 105.421 101.262 108.085C98.5975 110.75 94.2775 110.749 91.613 108.085L79.9424 96.4145C74.6653 100.694 67.9415 103.26 60.6173 103.26V51.2357C60.6173 49.8227 59.4717 48.6771 58.0588 48.6771H52.9416C51.5286 48.6771 50.383 49.8227 50.383 51.2357V103.26C43.0588 103.26 36.335 100.694 31.0579 96.4145L19.3873 108.085C16.7226 110.75 12.4026 110.749 9.73804 108.085C7.07369 105.421 7.07369 101.101 9.73804 98.436L22.5796 85.5944C20.7208 81.6369 19.6799 77.2191 19.6799 72.5573V69.1459H7.88178C4.16414 69.1459 1.02155 66.2312 0.919635 62.5149C0.813667 58.6591 3.90786 55.5 7.73978 55.5H19.6799V42.9747L9.73804 33.0328C7.07369 30.3683 7.07369 26.0483 9.73804 23.3837C12.4028 20.7192 16.7226 20.7192 19.3873 23.3837L31.0347 35.0313H79.9654L91.6128 23.384C94.2775 20.7194 98.5973 20.7194 101.262 23.384C103.926 26.0485 103.926 30.3685 101.262 33.0331L91.3204 42.9747V55.5H103.261C107.092 55.5 110.187 58.6591 110.081 62.5149ZM55.7134 0.916748C42.5247 0.916748 31.8332 11.6083 31.8332 24.7969H79.5936C79.5936 11.6083 68.9021 0.916748 55.7134 0.916748Z" />
</svg>
