<svg width="14" height="14" viewBox="0 0 14 14" fill="none" xmlns="http://www.w3.org/2000/svg">
<rect width="14" height="14" fill="white" fill-opacity="0"/>
<path d="M8.00342 9.5H6.25V11H8.00342V9.5Z" fill="black"/>
<path d="M8.5 5.5C8.5 5.88187 8.19084 6.2815 7.57253 6.43485C7.49731 6.4535 6.96017 6.65182 6.96017 6.65182C6.52112 6.79938 6.26623 7.21298 6.25 7.6268V8.49989L8.00342 8.5C8.00342 8.5 8 8 8.00342 7.85673C9.16683 7.51273 10 6.58745 10 5.5C10 4.11929 8.65685 3 7 3C5.34315 3 4 4.11929 4 5.5H5.5C5.5 5.01437 6.11725 4.5 7 4.5C7.88275 4.5 8.5 5.01437 8.5 5.5Z" fill="black"/>
<path fill-rule="evenodd" clip-rule="evenodd" d="M7 0C10.866 0 14 3.13401 14 7C14 10.866 10.866 14 7 14C3.13401 14 0 10.866 0 7C0 3.13401 3.13401 0 7 0ZM7 1.5C3.96243 1.5 1.5 3.96243 1.5 7C1.5 10.0376 3.96243 12.5 7 12.5C10.0376 12.5 12.5 10.0376 12.5 7C12.5 3.96243 10.0376 1.5 7 1.5Z" fill="black"/>
</svg>
