<svg width="14" height="14" viewBox="0 0 14 14" fill="none" xmlns="http://www.w3.org/2000/svg">
<rect width="14" height="14" fill="white" fill-opacity="0"/>
<path d="M7.5 1C7.63807 1 7.75 1.11193 7.75 1.25V6.25H12.75C12.8881 6.25 13 6.36193 13 6.5V7.5C13 7.63807 12.8881 7.75 12.75 7.75H7.75V12.75C7.75 12.8881 7.63807 13 7.5 13H6.5C6.36193 13 6.25 12.8881 6.25 12.75V7.75H1.25C1.11193 7.75 1 7.63807 1 7.5V6.5C1 6.36193 1.11193 6.25 1.25 6.25H6.25V1.25C6.25 1.11193 6.36193 1 6.5 1H7.5Z" fill="black"/>
</svg>
