<svg viewBox="0 0 111 111">
<path d="M98.3593 74.3515C93.0184 78.6861 87.1379 82.2788 80.7607 84.8096L92.3553 104.892L103.858 109.805C105.95 110.698 108.312 109.333 108.585 107.075L110.082 94.6558L98.3593 74.3515ZM107.419 54.1901C108.455 52.5548 107.822 50.3544 106.129 49.4163L100.144 46.0965C98.5491 45.2117 96.6025 45.7853 95.611 47.3161C86.8458 60.8615 71.7589 69.1449 55.5014 69.1449C50.3992 69.1449 45.4314 68.2387 40.7023 66.6865L55.0643 41.8088C55.2136 41.8131 55.35 41.8536 55.4993 41.8536C55.6485 41.8536 55.7871 41.8131 55.9342 41.8088L66.8273 60.6782C73.4859 58.7678 79.5263 55.1879 84.4408 50.2478L73.3985 31.1205C74.9869 28.2144 75.9699 24.9309 75.9699 21.3852C75.9699 10.0806 66.806 0.916748 55.5014 0.916748C44.1969 0.916748 35.033 10.0806 35.033 21.3852C35.033 24.9309 36.0159 28.2144 37.6022 31.1205L23.0398 56.3457C20.364 53.8703 17.9312 51.1028 15.8588 48.0304C14.8375 46.5166 12.8802 45.9793 11.3003 46.894L5.38362 50.3203C3.7099 51.2883 3.11717 53.4972 4.1811 55.1112C7.50082 60.1515 11.5775 64.5373 16.1168 68.3347L0.918945 94.6579L2.4157 107.078C2.68861 109.335 5.05101 110.7 7.14263 109.807L18.6455 104.894L33.7409 78.748C40.6042 81.3577 47.958 82.7905 55.5014 82.7905C76.6202 82.7905 96.1995 71.9145 107.419 54.1901ZM55.5014 14.5624C59.2689 14.5624 62.3242 17.6177 62.3242 21.3852C62.3242 25.1527 59.2689 28.208 55.5014 28.208C51.734 28.208 48.6786 25.1527 48.6786 21.3852C48.6786 17.6177 51.734 14.5624 55.5014 14.5624Z" />
</svg>
