<svg width="14" height="14" viewBox="0 0 14 14" fill="none" xmlns="http://www.w3.org/2000/svg">
<path fill-rule="evenodd" clip-rule="evenodd" d="M7 0C10.866 0 14 3.13401 14 7C14 10.866 10.866 14 7 14C3.13401 14 0 10.866 0 7C0 3.13401 3.13401 0 7 0ZM7 1.5C3.96243 1.5 1.5 3.96243 1.5 7C1.5 10.0376 3.96243 12.5 7 12.5C10.0376 12.5 12.5 10.0376 12.5 7C12.5 3.96243 10.0376 1.5 7 1.5ZM5.93934 7L4.46973 5.53039L5.53039 4.46973L7 5.93934L8.46961 4.46973L9.53027 5.53039L8.06066 7L9.53039 8.46973L8.46973 9.53039L7 8.06066L5.53027 9.53039L4.46961 8.46973L5.93934 7Z" fill="#EFA63B"/>
</svg>
