<svg width="14" height="14" viewBox="0 0 14 14" fill="none" xmlns="http://www.w3.org/2000/svg">
<path fill-rule="evenodd" clip-rule="evenodd" d="M14 7C14 3.134 10.866 0 7 0C3.13403 0 0 3.134 0 7C0 10.866 3.13403 14 7 14C10.866 14 14 10.866 14 7ZM1.5 7C1.5 3.96243 3.96246 1.5 7 1.5C10.0375 1.5 12.5 3.96243 12.5 7C12.5 10.0376 10.0375 12.5 7 12.5C3.96246 12.5 1.5 10.0376 1.5 7ZM7 5C7.55231 5 8 4.55228 8 4C8 3.44772 7.55231 3 7 3C6.44769 3 6 3.44772 6 4C6 4.55228 6.44769 5 7 5ZM8 11V7V6H5V7H6V11H8Z" fill="white" fill-opacity="0.6"/>
</svg>
