<svg width="14" height="14" viewBox="0 0 14 14" fill="none" xmlns="http://www.w3.org/2000/svg">
<rect width="14" height="14" fill="white" fill-opacity="0"/>
<path fill-rule="evenodd" clip-rule="evenodd" d="M14 7C14 3.13401 10.866 0 7 0C3.13401 0 0 3.13401 0 7C0 10.866 3.13401 14 7 14C10.866 14 14 10.866 14 7ZM8 9.5H6.25V11H8V9.5ZM8.5 5.5C8.5 5.88186 8.19084 6.2815 7.57253 6.43485C7.49731 6.4535 6.96017 6.65182 6.96017 6.65182C6.52112 6.79938 6.26623 7.21298 6.25 7.6268V8.49989L8.00318 8.5C8.00318 8.5 8 8 8.00318 7.85681C9.16671 7.51286 10 6.58753 10 5.5C10 4.11929 8.65685 3 7 3C5.34315 3 4 4.11929 4 5.5H5.5C5.5 5.01437 6.11725 4.5 7 4.5C7.88275 4.5 8.5 5.01437 8.5 5.5Z" fill="black"/>
</svg>
