<svg width="32" height="32" viewBox="0 0 32 32" fill="none" xmlns="http://www.w3.org/2000/svg">
<mask id="mask0_1_208" style="mask-type:alpha" maskUnits="userSpaceOnUse" x="0" y="0" width="32" height="32">
<rect width="32" height="32" rx="16" fill="#D9D9D9"/>
</mask>
<g mask="url(#mask0_1_208)">
<circle cx="16" cy="16" r="16" fill="#707070"/>
<circle opacity="0.6" cx="26.6667" cy="5.33334" r="16" fill="#E5DDDA"/>
<circle opacity="0.6" cx="26.6667" cy="24" r="16" fill="#E5DDDA"/>
<circle opacity="0.5" cx="8" cy="4" r="16" fill="#E5DDDA"/>
<circle cx="8" cy="25.3333" r="16" fill="#675B58"/>
<circle cx="26.6667" cy="10.6667" r="16" fill="url(#paint0_radial_1_208)" fill-opacity="0.2"/>
<mask id="mask1_1_208" style="mask-type:alpha" maskUnits="userSpaceOnUse" x="-7" y="-2" width="46" height="46">
<rect x="-6.66669" y="-1.33331" width="45.3333" height="45.3333" fill="#D9D9D9"/>
</mask>
<g mask="url(#mask1_1_208)">
<path d="M16 21.3333C13.9222 21.3333 12.1435 20.5935 10.6639 19.1139C9.18426 17.6343 8.44444 15.8556 8.44444 13.7778C8.44444 11.7 9.18426 9.9213 10.6639 8.44167C12.1435 6.96204 13.9222 6.22223 16 6.22223C18.0778 6.22223 19.8565 6.96204 21.3361 8.44167C22.8157 9.9213 23.5556 11.7 23.5556 13.7778C23.5556 15.8556 22.8157 17.6343 21.3361 19.1139C19.8565 20.5935 18.0778 21.3333 16 21.3333ZM0.888885 36.4445V31.1556C0.888885 30.0852 1.16435 29.1014 1.71527 28.2042C2.2662 27.3069 2.99814 26.6222 3.91111 26.15C5.86296 25.1741 7.84629 24.4421 9.86111 23.9542C11.8759 23.4662 13.9222 23.2222 16 23.2222C18.0778 23.2222 20.1241 23.4662 22.1389 23.9542C24.1537 24.4421 26.137 25.1741 28.0889 26.15C29.0018 26.6222 29.7338 27.3069 30.2847 28.2042C30.8356 29.1014 31.1111 30.0852 31.1111 31.1556V36.4445H0.888885ZM4.66666 32.6667H27.3333V31.1556C27.3333 30.8093 27.2468 30.4944 27.0736 30.2111C26.9005 29.9278 26.6722 29.7074 26.3889 29.55C24.6889 28.7 22.9731 28.0625 21.2417 27.6375C19.5102 27.2125 17.763 27 16 27C14.237 27 12.4898 27.2125 10.7583 27.6375C9.02685 28.0625 7.31111 28.7 5.61111 29.55C5.32777 29.7074 5.09953 29.9278 4.92639 30.2111C4.75324 30.4944 4.66666 30.8093 4.66666 31.1556V32.6667ZM16 17.5556C17.0389 17.5556 17.9282 17.1857 18.6681 16.4458C19.4079 15.706 19.7778 14.8167 19.7778 13.7778C19.7778 12.7389 19.4079 11.8495 18.6681 11.1097C17.9282 10.3699 17.0389 10 16 10C14.9611 10 14.0718 10.3699 13.3319 11.1097C12.5921 11.8495 12.2222 12.7389 12.2222 13.7778C12.2222 14.8167 12.5921 15.706 13.3319 16.4458C14.0718 17.1857 14.9611 17.5556 16 17.5556Z" fill="white"/>
</g>
</g>
<defs>
<radialGradient id="paint0_radial_1_208" cx="0" cy="0" r="1" gradientUnits="userSpaceOnUse" gradientTransform="translate(26.6667 10.6667) rotate(90) scale(16)">
<stop stop-color="#6E6E6E"/>
<stop offset="1" stop-color="#2F2F2F"/>
</radialGradient>
</defs>
</svg>
