<?xml version="1.0" encoding="UTF-8"?>
<svg width="16px" height="12px" viewBox="0 0 16 12" version="1.1" xmlns="http://www.w3.org/2000/svg" xmlns:xlink="http://www.w3.org/1999/xlink">
    <g id="01-main-screens" stroke="none" stroke-width="1" fill="none" fill-rule="evenodd">
        <g id="02-editor" transform="translate(-1042.000000, -59.000000)" fill="#BFBFBF">
            <g id="btn-secondary" transform="translate(1030.000000, 49.000000)">
                <path d="M19.9998345,10 C23.6934058,10 26.8356145,12.5046215 28,16.0004159 C26.8350189,19.4958532 23.6930558,22 19.9998345,22 C16.3066132,22 13.16465,19.4958532 12,16.000578 C13.1640544,12.5046215 16.3062631,10 19.9998345,10 Z M19.9837264,12 C17.7790812,12 15.9918632,13.790861 15.9918632,16 C15.9918632,18.209139 17.7790812,20 19.9837264,20 C22.1883716,20 23.9755896,18.209139 23.9755896,16 C23.9755896,13.790861 22.1883716,12 19.9837264,12 Z M19.9837264,14 C21.086049,14 21.979658,14.8954305 21.979658,16 C21.979658,17.1045695 21.086049,18 19.9837264,18 C18.8814038,18 17.9877948,17.1045695 17.9877948,16 C17.9877948,14.8954305 18.8814038,14 19.9837264,14 Z" id="icn-eye"></path>
            </g>
        </g>
    </g>
</svg>